<?xml version="1.0" encoding="utf-8" standalone="no"?>
<!DOCTYPE svg PUBLIC "-//W3C//DTD SVG 1.1//EN"
  "http://www.w3.org/Graphics/SVG/1.1/DTD/svg11.dtd">
<svg xmlns:xlink="http://www.w3.org/1999/xlink" width="576pt" height="360pt" viewBox="0 0 576 360" xmlns="http://www.w3.org/2000/svg" version="1.1">
 <metadata>
  <rdf:RDF xmlns:dc="http://purl.org/dc/elements/1.1/" xmlns:cc="http://creativecommons.org/ns#" xmlns:rdf="http://www.w3.org/1999/02/22-rdf-syntax-ns#">
   <cc:Work>
    <dc:type rdf:resource="http://purl.org/dc/dcmitype/StillImage"/>
    <dc:date>2025-11-22T00:01:03.517904</dc:date>
    <dc:format>image/svg+xml</dc:format>
    <dc:creator>
     <cc:Agent>
      <dc:title>Matplotlib v3.10.3, https://matplotlib.org/</dc:title>
     </cc:Agent>
    </dc:creator>
   </cc:Work>
  </rdf:RDF>
 </metadata>
 <defs>
  <style type="text/css">*{stroke-linejoin: round; stroke-linecap: butt}</style>
 </defs>
 <g id="figure_1">
  <g id="patch_1">
   <path d="M 0 360 
L 576 360 
L 576 0 
L 0 0 
z
" style="fill: #ffffff"/>
  </g>
  <g id="axes_1">
   <g id="patch_2">
    <path d="M 44.57 318.04 
L 565.2 318.04 
L 565.2 41.856 
L 44.57 41.856 
z
" style="fill: #ffffff"/>
   </g>
   <g id="matplotlib.axis_1">
    <g id="xtick_1">
     <g id="line2d_1">
      <path d="M 68.235 318.04 
L 68.235 41.856 
" clip-path="url(#p5959cf2e88)" style="fill: none; stroke: #b0b0b0; stroke-width: 0.8; stroke-linecap: square"/>
     </g>
     <g id="line2d_2">
      <defs>
       <path id="m40a077e54f" d="M 0 0 
L 0 3.5 
" style="stroke: #000000; stroke-width: 0.8"/>
      </defs>
      <g>
       <use xlink:href="#m40a077e54f" x="68.235" y="318.04" style="stroke: #000000; stroke-width: 0.8"/>
      </g>
     </g>
     <g id="text_1">
      <!-- 0 -->
      <g transform="translate(65.05375 332.638438) scale(0.1 -0.1)">
       <defs>
        <path id="DejaVuSans-30" d="M 2034 4250 
Q 1547 4250 1301 3770 
Q 1056 3291 1056 2328 
Q 1056 1369 1301 889 
Q 1547 409 2034 409 
Q 2525 409 2770 889 
Q 3016 1369 3016 2328 
Q 3016 3291 2770 3770 
Q 2525 4250 2034 4250 
z
M 2034 4750 
Q 2819 4750 3233 4129 
Q 3647 3509 3647 2328 
Q 3647 1150 3233 529 
Q 2819 -91 2034 -91 
Q 1250 -91 836 529 
Q 422 1150 422 2328 
Q 422 3509 836 4129 
Q 1250 4750 2034 4750 
z
" transform="scale(0.015625)"/>
       </defs>
       <use xlink:href="#DejaVuSans-30"/>
      </g>
     </g>
    </g>
    <g id="xtick_2">
     <g id="line2d_3">
      <path d="M 164.044717 318.04 
L 164.044717 41.856 
" clip-path="url(#p5959cf2e88)" style="fill: none; stroke: #b0b0b0; stroke-width: 0.8; stroke-linecap: square"/>
     </g>
     <g id="line2d_4">
      <g>
       <use xlink:href="#m40a077e54f" x="164.044717" y="318.04" style="stroke: #000000; stroke-width: 0.8"/>
      </g>
     </g>
     <g id="text_2">
      <!-- 5 -->
      <g transform="translate(160.863467 332.638438) scale(0.1 -0.1)">
       <defs>
        <path id="DejaVuSans-35" d="M 691 4666 
L 3169 4666 
L 3169 4134 
L 1269 4134 
L 1269 2991 
Q 1406 3038 1543 3061 
Q 1681 3084 1819 3084 
Q 2600 3084 3056 2656 
Q 3513 2228 3513 1497 
Q 3513 744 3044 326 
Q 2575 -91 1722 -91 
Q 1428 -91 1123 -41 
Q 819 9 494 109 
L 494 744 
Q 775 591 1075 516 
Q 1375 441 1709 441 
Q 2250 441 2565 725 
Q 2881 1009 2881 1497 
Q 2881 1984 2565 2268 
Q 2250 2553 1709 2553 
Q 1456 2553 1204 2497 
Q 953 2441 691 2322 
L 691 4666 
z
" transform="scale(0.015625)"/>
       </defs>
       <use xlink:href="#DejaVuSans-35"/>
      </g>
     </g>
    </g>
    <g id="xtick_3">
     <g id="line2d_5">
      <path d="M 259.854433 318.04 
L 259.854433 41.856 
" clip-path="url(#p5959cf2e88)" style="fill: none; stroke: #b0b0b0; stroke-width: 0.8; stroke-linecap: square"/>
     </g>
     <g id="line2d_6">
      <g>
       <use xlink:href="#m40a077e54f" x="259.854433" y="318.04" style="stroke: #000000; stroke-width: 0.8"/>
      </g>
     </g>
     <g id="text_3">
      <!-- 10 -->
      <g transform="translate(253.491933 332.638438) scale(0.1 -0.1)">
       <defs>
        <path id="DejaVuSans-31" d="M 794 531 
L 1825 531 
L 1825 4091 
L 703 3866 
L 703 4441 
L 1819 4666 
L 2450 4666 
L 2450 531 
L 3481 531 
L 3481 0 
L 794 0 
L 794 531 
z
" transform="scale(0.015625)"/>
       </defs>
       <use xlink:href="#DejaVuSans-31"/>
       <use xlink:href="#DejaVuSans-30" transform="translate(63.623047 0)"/>
      </g>
     </g>
    </g>
    <g id="xtick_4">
     <g id="line2d_7">
      <path d="M 355.66415 318.04 
L 355.66415 41.856 
" clip-path="url(#p5959cf2e88)" style="fill: none; stroke: #b0b0b0; stroke-width: 0.8; stroke-linecap: square"/>
     </g>
     <g id="line2d_8">
      <g>
       <use xlink:href="#m40a077e54f" x="355.66415" y="318.04" style="stroke: #000000; stroke-width: 0.8"/>
      </g>
     </g>
     <g id="text_4">
      <!-- 15 -->
      <g transform="translate(349.30165 332.638438) scale(0.1 -0.1)">
       <use xlink:href="#DejaVuSans-31"/>
       <use xlink:href="#DejaVuSans-35" transform="translate(63.623047 0)"/>
      </g>
     </g>
    </g>
    <g id="xtick_5">
     <g id="line2d_9">
      <path d="M 451.473866 318.04 
L 451.473866 41.856 
" clip-path="url(#p5959cf2e88)" style="fill: none; stroke: #b0b0b0; stroke-width: 0.8; stroke-linecap: square"/>
     </g>
     <g id="line2d_10">
      <g>
       <use xlink:href="#m40a077e54f" x="451.473866" y="318.04" style="stroke: #000000; stroke-width: 0.8"/>
      </g>
     </g>
     <g id="text_5">
      <!-- 20 -->
      <g transform="translate(445.111366 332.638438) scale(0.1 -0.1)">
       <defs>
        <path id="DejaVuSans-32" d="M 1228 531 
L 3431 531 
L 3431 0 
L 469 0 
L 469 531 
Q 828 903 1448 1529 
Q 2069 2156 2228 2338 
Q 2531 2678 2651 2914 
Q 2772 3150 2772 3378 
Q 2772 3750 2511 3984 
Q 2250 4219 1831 4219 
Q 1534 4219 1204 4116 
Q 875 4013 500 3803 
L 500 4441 
Q 881 4594 1212 4672 
Q 1544 4750 1819 4750 
Q 2544 4750 2975 4387 
Q 3406 4025 3406 3419 
Q 3406 3131 3298 2873 
Q 3191 2616 2906 2266 
Q 2828 2175 2409 1742 
Q 1991 1309 1228 531 
z
" transform="scale(0.015625)"/>
       </defs>
       <use xlink:href="#DejaVuSans-32"/>
       <use xlink:href="#DejaVuSans-30" transform="translate(63.623047 0)"/>
      </g>
     </g>
    </g>
    <g id="xtick_6">
     <g id="line2d_11">
      <path d="M 547.283583 318.04 
L 547.283583 41.856 
" clip-path="url(#p5959cf2e88)" style="fill: none; stroke: #b0b0b0; stroke-width: 0.8; stroke-linecap: square"/>
     </g>
     <g id="line2d_12">
      <g>
       <use xlink:href="#m40a077e54f" x="547.283583" y="318.04" style="stroke: #000000; stroke-width: 0.8"/>
      </g>
     </g>
     <g id="text_6">
      <!-- 25 -->
      <g transform="translate(540.921083 332.638438) scale(0.1 -0.1)">
       <use xlink:href="#DejaVuSans-32"/>
       <use xlink:href="#DejaVuSans-35" transform="translate(63.623047 0)"/>
      </g>
     </g>
    </g>
    <g id="text_7">
     <!-- Position x (mm) -->
     <g transform="translate(265.64125 346.316563) scale(0.1 -0.1)">
      <defs>
       <path id="DejaVuSans-50" d="M 1259 4147 
L 1259 2394 
L 2053 2394 
Q 2494 2394 2734 2622 
Q 2975 2850 2975 3272 
Q 2975 3691 2734 3919 
Q 2494 4147 2053 4147 
L 1259 4147 
z
M 628 4666 
L 2053 4666 
Q 2838 4666 3239 4311 
Q 3641 3956 3641 3272 
Q 3641 2581 3239 2228 
Q 2838 1875 2053 1875 
L 1259 1875 
L 1259 0 
L 628 0 
L 628 4666 
z
" transform="scale(0.015625)"/>
       <path id="DejaVuSans-6f" d="M 1959 3097 
Q 1497 3097 1228 2736 
Q 959 2375 959 1747 
Q 959 1119 1226 758 
Q 1494 397 1959 397 
Q 2419 397 2687 759 
Q 2956 1122 2956 1747 
Q 2956 2369 2687 2733 
Q 2419 3097 1959 3097 
z
M 1959 3584 
Q 2709 3584 3137 3096 
Q 3566 2609 3566 1747 
Q 3566 888 3137 398 
Q 2709 -91 1959 -91 
Q 1206 -91 779 398 
Q 353 888 353 1747 
Q 353 2609 779 3096 
Q 1206 3584 1959 3584 
z
" transform="scale(0.015625)"/>
       <path id="DejaVuSans-73" d="M 2834 3397 
L 2834 2853 
Q 2591 2978 2328 3040 
Q 2066 3103 1784 3103 
Q 1356 3103 1142 2972 
Q 928 2841 928 2578 
Q 928 2378 1081 2264 
Q 1234 2150 1697 2047 
L 1894 2003 
Q 2506 1872 2764 1633 
Q 3022 1394 3022 966 
Q 3022 478 2636 193 
Q 2250 -91 1575 -91 
Q 1294 -91 989 -36 
Q 684 19 347 128 
L 347 722 
Q 666 556 975 473 
Q 1284 391 1588 391 
Q 1994 391 2212 530 
Q 2431 669 2431 922 
Q 2431 1156 2273 1281 
Q 2116 1406 1581 1522 
L 1381 1569 
Q 847 1681 609 1914 
Q 372 2147 372 2553 
Q 372 3047 722 3315 
Q 1072 3584 1716 3584 
Q 2034 3584 2315 3537 
Q 2597 3491 2834 3397 
z
" transform="scale(0.015625)"/>
       <path id="DejaVuSans-69" d="M 603 3500 
L 1178 3500 
L 1178 0 
L 603 0 
L 603 3500 
z
M 603 4863 
L 1178 4863 
L 1178 4134 
L 603 4134 
L 603 4863 
z
" transform="scale(0.015625)"/>
       <path id="DejaVuSans-74" d="M 1172 4494 
L 1172 3500 
L 2356 3500 
L 2356 3053 
L 1172 3053 
L 1172 1153 
Q 1172 725 1289 603 
Q 1406 481 1766 481 
L 2356 481 
L 2356 0 
L 1766 0 
Q 1100 0 847 248 
Q 594 497 594 1153 
L 594 3053 
L 172 3053 
L 172 3500 
L 594 3500 
L 594 4494 
L 1172 4494 
z
" transform="scale(0.015625)"/>
       <path id="DejaVuSans-6e" d="M 3513 2113 
L 3513 0 
L 2938 0 
L 2938 2094 
Q 2938 2591 2744 2837 
Q 2550 3084 2163 3084 
Q 1697 3084 1428 2787 
Q 1159 2491 1159 1978 
L 1159 0 
L 581 0 
L 581 3500 
L 1159 3500 
L 1159 2956 
Q 1366 3272 1645 3428 
Q 1925 3584 2291 3584 
Q 2894 3584 3203 3211 
Q 3513 2838 3513 2113 
z
" transform="scale(0.015625)"/>
       <path id="DejaVuSans-20" transform="scale(0.015625)"/>
       <path id="DejaVuSans-78" d="M 3513 3500 
L 2247 1797 
L 3578 0 
L 2900 0 
L 1881 1375 
L 863 0 
L 184 0 
L 1544 1831 
L 300 3500 
L 978 3500 
L 1906 2253 
L 2834 3500 
L 3513 3500 
z
" transform="scale(0.015625)"/>
       <path id="DejaVuSans-28" d="M 1984 4856 
Q 1566 4138 1362 3434 
Q 1159 2731 1159 2009 
Q 1159 1288 1364 580 
Q 1569 -128 1984 -844 
L 1484 -844 
Q 1016 -109 783 600 
Q 550 1309 550 2009 
Q 550 2706 781 3412 
Q 1013 4119 1484 4856 
L 1984 4856 
z
" transform="scale(0.015625)"/>
       <path id="DejaVuSans-6d" d="M 3328 2828 
Q 3544 3216 3844 3400 
Q 4144 3584 4550 3584 
Q 5097 3584 5394 3201 
Q 5691 2819 5691 2113 
L 5691 0 
L 5113 0 
L 5113 2094 
Q 5113 2597 4934 2840 
Q 4756 3084 4391 3084 
Q 3944 3084 3684 2787 
Q 3425 2491 3425 1978 
L 3425 0 
L 2847 0 
L 2847 2094 
Q 2847 2600 2669 2842 
Q 2491 3084 2119 3084 
Q 1678 3084 1418 2786 
Q 1159 2488 1159 1978 
L 1159 0 
L 581 0 
L 581 3500 
L 1159 3500 
L 1159 2956 
Q 1356 3278 1631 3431 
Q 1906 3584 2284 3584 
Q 2666 3584 2933 3390 
Q 3200 3197 3328 2828 
z
" transform="scale(0.015625)"/>
       <path id="DejaVuSans-29" d="M 513 4856 
L 1013 4856 
Q 1481 4119 1714 3412 
Q 1947 2706 1947 2009 
Q 1947 1309 1714 600 
Q 1481 -109 1013 -844 
L 513 -844 
Q 928 -128 1133 580 
Q 1338 1288 1338 2009 
Q 1338 2731 1133 3434 
Q 928 4138 513 4856 
z
" transform="scale(0.015625)"/>
      </defs>
      <use xlink:href="#DejaVuSans-50"/>
      <use xlink:href="#DejaVuSans-6f" transform="translate(56.677734 0)"/>
      <use xlink:href="#DejaVuSans-73" transform="translate(117.859375 0)"/>
      <use xlink:href="#DejaVuSans-69" transform="translate(169.958984 0)"/>
      <use xlink:href="#DejaVuSans-74" transform="translate(197.742188 0)"/>
      <use xlink:href="#DejaVuSans-69" transform="translate(236.951172 0)"/>
      <use xlink:href="#DejaVuSans-6f" transform="translate(264.734375 0)"/>
      <use xlink:href="#DejaVuSans-6e" transform="translate(325.916016 0)"/>
      <use xlink:href="#DejaVuSans-20" transform="translate(389.294922 0)"/>
      <use xlink:href="#DejaVuSans-78" transform="translate(421.082031 0)"/>
      <use xlink:href="#DejaVuSans-20" transform="translate(480.261719 0)"/>
      <use xlink:href="#DejaVuSans-28" transform="translate(512.048828 0)"/>
      <use xlink:href="#DejaVuSans-6d" transform="translate(551.0625 0)"/>
      <use xlink:href="#DejaVuSans-6d" transform="translate(648.474609 0)"/>
      <use xlink:href="#DejaVuSans-29" transform="translate(745.886719 0)"/>
     </g>
    </g>
   </g>
   <g id="matplotlib.axis_2">
    <g id="ytick_1">
     <g id="line2d_13">
      <path d="M 44.57 290.998339 
L 565.2 290.998339 
" clip-path="url(#p5959cf2e88)" style="fill: none; stroke: #b0b0b0; stroke-width: 0.8; stroke-linecap: square"/>
     </g>
     <g id="line2d_14">
      <defs>
       <path id="m1275342a24" d="M 0 0 
L -3.5 0 
" style="stroke: #000000; stroke-width: 0.8"/>
      </defs>
      <g>
       <use xlink:href="#m1275342a24" x="44.57" y="290.998339" style="stroke: #000000; stroke-width: 0.8"/>
      </g>
     </g>
     <g id="text_8">
      <!-- 10 -->
      <g transform="translate(24.845 294.797558) scale(0.1 -0.1)">
       <use xlink:href="#DejaVuSans-31"/>
       <use xlink:href="#DejaVuSans-30" transform="translate(63.623047 0)"/>
      </g>
     </g>
    </g>
    <g id="ytick_2">
     <g id="line2d_15">
      <path d="M 44.57 252.51198 
L 565.2 252.51198 
" clip-path="url(#p5959cf2e88)" style="fill: none; stroke: #b0b0b0; stroke-width: 0.8; stroke-linecap: square"/>
     </g>
     <g id="line2d_16">
      <g>
       <use xlink:href="#m1275342a24" x="44.57" y="252.51198" style="stroke: #000000; stroke-width: 0.8"/>
      </g>
     </g>
     <g id="text_9">
      <!-- 15 -->
      <g transform="translate(24.845 256.311199) scale(0.1 -0.1)">
       <use xlink:href="#DejaVuSans-31"/>
       <use xlink:href="#DejaVuSans-35" transform="translate(63.623047 0)"/>
      </g>
     </g>
    </g>
    <g id="ytick_3">
     <g id="line2d_17">
      <path d="M 44.57 214.025621 
L 565.2 214.025621 
" clip-path="url(#p5959cf2e88)" style="fill: none; stroke: #b0b0b0; stroke-width: 0.8; stroke-linecap: square"/>
     </g>
     <g id="line2d_18">
      <g>
       <use xlink:href="#m1275342a24" x="44.57" y="214.025621" style="stroke: #000000; stroke-width: 0.8"/>
      </g>
     </g>
     <g id="text_10">
      <!-- 20 -->
      <g transform="translate(24.845 217.82484) scale(0.1 -0.1)">
       <use xlink:href="#DejaVuSans-32"/>
       <use xlink:href="#DejaVuSans-30" transform="translate(63.623047 0)"/>
      </g>
     </g>
    </g>
    <g id="ytick_4">
     <g id="line2d_19">
      <path d="M 44.57 175.539262 
L 565.2 175.539262 
" clip-path="url(#p5959cf2e88)" style="fill: none; stroke: #b0b0b0; stroke-width: 0.8; stroke-linecap: square"/>
     </g>
     <g id="line2d_20">
      <g>
       <use xlink:href="#m1275342a24" x="44.57" y="175.539262" style="stroke: #000000; stroke-width: 0.8"/>
      </g>
     </g>
     <g id="text_11">
      <!-- 25 -->
      <g transform="translate(24.845 179.338481) scale(0.1 -0.1)">
       <use xlink:href="#DejaVuSans-32"/>
       <use xlink:href="#DejaVuSans-35" transform="translate(63.623047 0)"/>
      </g>
     </g>
    </g>
    <g id="ytick_5">
     <g id="line2d_21">
      <path d="M 44.57 137.052903 
L 565.2 137.052903 
" clip-path="url(#p5959cf2e88)" style="fill: none; stroke: #b0b0b0; stroke-width: 0.8; stroke-linecap: square"/>
     </g>
     <g id="line2d_22">
      <g>
       <use xlink:href="#m1275342a24" x="44.57" y="137.052903" style="stroke: #000000; stroke-width: 0.8"/>
      </g>
     </g>
     <g id="text_12">
      <!-- 30 -->
      <g transform="translate(24.845 140.852122) scale(0.1 -0.1)">
       <defs>
        <path id="DejaVuSans-33" d="M 2597 2516 
Q 3050 2419 3304 2112 
Q 3559 1806 3559 1356 
Q 3559 666 3084 287 
Q 2609 -91 1734 -91 
Q 1441 -91 1130 -33 
Q 819 25 488 141 
L 488 750 
Q 750 597 1062 519 
Q 1375 441 1716 441 
Q 2309 441 2620 675 
Q 2931 909 2931 1356 
Q 2931 1769 2642 2001 
Q 2353 2234 1838 2234 
L 1294 2234 
L 1294 2753 
L 1863 2753 
Q 2328 2753 2575 2939 
Q 2822 3125 2822 3475 
Q 2822 3834 2567 4026 
Q 2313 4219 1838 4219 
Q 1578 4219 1281 4162 
Q 984 4106 628 3988 
L 628 4550 
Q 988 4650 1302 4700 
Q 1616 4750 1894 4750 
Q 2613 4750 3031 4423 
Q 3450 4097 3450 3541 
Q 3450 3153 3228 2886 
Q 3006 2619 2597 2516 
z
" transform="scale(0.015625)"/>
       </defs>
       <use xlink:href="#DejaVuSans-33"/>
       <use xlink:href="#DejaVuSans-30" transform="translate(63.623047 0)"/>
      </g>
     </g>
    </g>
    <g id="ytick_6">
     <g id="line2d_23">
      <path d="M 44.57 98.566544 
L 565.2 98.566544 
" clip-path="url(#p5959cf2e88)" style="fill: none; stroke: #b0b0b0; stroke-width: 0.8; stroke-linecap: square"/>
     </g>
     <g id="line2d_24">
      <g>
       <use xlink:href="#m1275342a24" x="44.57" y="98.566544" style="stroke: #000000; stroke-width: 0.8"/>
      </g>
     </g>
     <g id="text_13">
      <!-- 35 -->
      <g transform="translate(24.845 102.365763) scale(0.1 -0.1)">
       <use xlink:href="#DejaVuSans-33"/>
       <use xlink:href="#DejaVuSans-35" transform="translate(63.623047 0)"/>
      </g>
     </g>
    </g>
    <g id="ytick_7">
     <g id="line2d_25">
      <path d="M 44.57 60.080185 
L 565.2 60.080185 
" clip-path="url(#p5959cf2e88)" style="fill: none; stroke: #b0b0b0; stroke-width: 0.8; stroke-linecap: square"/>
     </g>
     <g id="line2d_26">
      <g>
       <use xlink:href="#m1275342a24" x="44.57" y="60.080185" style="stroke: #000000; stroke-width: 0.8"/>
      </g>
     </g>
     <g id="text_14">
      <!-- 40 -->
      <g transform="translate(24.845 63.879404) scale(0.1 -0.1)">
       <defs>
        <path id="DejaVuSans-34" d="M 2419 4116 
L 825 1625 
L 2419 1625 
L 2419 4116 
z
M 2253 4666 
L 3047 4666 
L 3047 1625 
L 3713 1625 
L 3713 1100 
L 3047 1100 
L 3047 0 
L 2419 0 
L 2419 1100 
L 313 1100 
L 313 1709 
L 2253 4666 
z
" transform="scale(0.015625)"/>
       </defs>
       <use xlink:href="#DejaVuSans-34"/>
       <use xlink:href="#DejaVuSans-30" transform="translate(63.623047 0)"/>
      </g>
     </g>
    </g>
    <g id="text_15">
     <!-- Mean coincidences per interval -->
     <g transform="translate(18.765313 258.062063) rotate(-90) scale(0.1 -0.1)">
      <defs>
       <path id="DejaVuSans-4d" d="M 628 4666 
L 1569 4666 
L 2759 1491 
L 3956 4666 
L 4897 4666 
L 4897 0 
L 4281 0 
L 4281 4097 
L 3078 897 
L 2444 897 
L 1241 4097 
L 1241 0 
L 628 0 
L 628 4666 
z
" transform="scale(0.015625)"/>
       <path id="DejaVuSans-65" d="M 3597 1894 
L 3597 1613 
L 953 1613 
Q 991 1019 1311 708 
Q 1631 397 2203 397 
Q 2534 397 2845 478 
Q 3156 559 3463 722 
L 3463 178 
Q 3153 47 2828 -22 
Q 2503 -91 2169 -91 
Q 1331 -91 842 396 
Q 353 884 353 1716 
Q 353 2575 817 3079 
Q 1281 3584 2069 3584 
Q 2775 3584 3186 3129 
Q 3597 2675 3597 1894 
z
M 3022 2063 
Q 3016 2534 2758 2815 
Q 2500 3097 2075 3097 
Q 1594 3097 1305 2825 
Q 1016 2553 972 2059 
L 3022 2063 
z
" transform="scale(0.015625)"/>
       <path id="DejaVuSans-61" d="M 2194 1759 
Q 1497 1759 1228 1600 
Q 959 1441 959 1056 
Q 959 750 1161 570 
Q 1363 391 1709 391 
Q 2188 391 2477 730 
Q 2766 1069 2766 1631 
L 2766 1759 
L 2194 1759 
z
M 3341 1997 
L 3341 0 
L 2766 0 
L 2766 531 
Q 2569 213 2275 61 
Q 1981 -91 1556 -91 
Q 1019 -91 701 211 
Q 384 513 384 1019 
Q 384 1609 779 1909 
Q 1175 2209 1959 2209 
L 2766 2209 
L 2766 2266 
Q 2766 2663 2505 2880 
Q 2244 3097 1772 3097 
Q 1472 3097 1187 3025 
Q 903 2953 641 2809 
L 641 3341 
Q 956 3463 1253 3523 
Q 1550 3584 1831 3584 
Q 2591 3584 2966 3190 
Q 3341 2797 3341 1997 
z
" transform="scale(0.015625)"/>
       <path id="DejaVuSans-63" d="M 3122 3366 
L 3122 2828 
Q 2878 2963 2633 3030 
Q 2388 3097 2138 3097 
Q 1578 3097 1268 2742 
Q 959 2388 959 1747 
Q 959 1106 1268 751 
Q 1578 397 2138 397 
Q 2388 397 2633 464 
Q 2878 531 3122 666 
L 3122 134 
Q 2881 22 2623 -34 
Q 2366 -91 2075 -91 
Q 1284 -91 818 406 
Q 353 903 353 1747 
Q 353 2603 823 3093 
Q 1294 3584 2113 3584 
Q 2378 3584 2631 3529 
Q 2884 3475 3122 3366 
z
" transform="scale(0.015625)"/>
       <path id="DejaVuSans-64" d="M 2906 2969 
L 2906 4863 
L 3481 4863 
L 3481 0 
L 2906 0 
L 2906 525 
Q 2725 213 2448 61 
Q 2172 -91 1784 -91 
Q 1150 -91 751 415 
Q 353 922 353 1747 
Q 353 2572 751 3078 
Q 1150 3584 1784 3584 
Q 2172 3584 2448 3432 
Q 2725 3281 2906 2969 
z
M 947 1747 
Q 947 1113 1208 752 
Q 1469 391 1925 391 
Q 2381 391 2643 752 
Q 2906 1113 2906 1747 
Q 2906 2381 2643 2742 
Q 2381 3103 1925 3103 
Q 1469 3103 1208 2742 
Q 947 2381 947 1747 
z
" transform="scale(0.015625)"/>
       <path id="DejaVuSans-70" d="M 1159 525 
L 1159 -1331 
L 581 -1331 
L 581 3500 
L 1159 3500 
L 1159 2969 
Q 1341 3281 1617 3432 
Q 1894 3584 2278 3584 
Q 2916 3584 3314 3078 
Q 3713 2572 3713 1747 
Q 3713 922 3314 415 
Q 2916 -91 2278 -91 
Q 1894 -91 1617 61 
Q 1341 213 1159 525 
z
M 3116 1747 
Q 3116 2381 2855 2742 
Q 2594 3103 2138 3103 
Q 1681 3103 1420 2742 
Q 1159 2381 1159 1747 
Q 1159 1113 1420 752 
Q 1681 391 2138 391 
Q 2594 391 2855 752 
Q 3116 1113 3116 1747 
z
" transform="scale(0.015625)"/>
       <path id="DejaVuSans-72" d="M 2631 2963 
Q 2534 3019 2420 3045 
Q 2306 3072 2169 3072 
Q 1681 3072 1420 2755 
Q 1159 2438 1159 1844 
L 1159 0 
L 581 0 
L 581 3500 
L 1159 3500 
L 1159 2956 
Q 1341 3275 1631 3429 
Q 1922 3584 2338 3584 
Q 2397 3584 2469 3576 
Q 2541 3569 2628 3553 
L 2631 2963 
z
" transform="scale(0.015625)"/>
       <path id="DejaVuSans-76" d="M 191 3500 
L 800 3500 
L 1894 563 
L 2988 3500 
L 3597 3500 
L 2284 0 
L 1503 0 
L 191 3500 
z
" transform="scale(0.015625)"/>
       <path id="DejaVuSans-6c" d="M 603 4863 
L 1178 4863 
L 1178 0 
L 603 0 
L 603 4863 
z
" transform="scale(0.015625)"/>
      </defs>
      <use xlink:href="#DejaVuSans-4d"/>
      <use xlink:href="#DejaVuSans-65" transform="translate(86.279297 0)"/>
      <use xlink:href="#DejaVuSans-61" transform="translate(147.802734 0)"/>
      <use xlink:href="#DejaVuSans-6e" transform="translate(209.082031 0)"/>
      <use xlink:href="#DejaVuSans-20" transform="translate(272.460938 0)"/>
      <use xlink:href="#DejaVuSans-63" transform="translate(304.248047 0)"/>
      <use xlink:href="#DejaVuSans-6f" transform="translate(359.228516 0)"/>
      <use xlink:href="#DejaVuSans-69" transform="translate(420.410156 0)"/>
      <use xlink:href="#DejaVuSans-6e" transform="translate(448.193359 0)"/>
      <use xlink:href="#DejaVuSans-63" transform="translate(511.572266 0)"/>
      <use xlink:href="#DejaVuSans-69" transform="translate(566.552734 0)"/>
      <use xlink:href="#DejaVuSans-64" transform="translate(594.335938 0)"/>
      <use xlink:href="#DejaVuSans-65" transform="translate(657.8125 0)"/>
      <use xlink:href="#DejaVuSans-6e" transform="translate(719.335938 0)"/>
      <use xlink:href="#DejaVuSans-63" transform="translate(782.714844 0)"/>
      <use xlink:href="#DejaVuSans-65" transform="translate(837.695312 0)"/>
      <use xlink:href="#DejaVuSans-73" transform="translate(899.21875 0)"/>
      <use xlink:href="#DejaVuSans-20" transform="translate(951.318359 0)"/>
      <use xlink:href="#DejaVuSans-70" transform="translate(983.105469 0)"/>
      <use xlink:href="#DejaVuSans-65" transform="translate(1046.582031 0)"/>
      <use xlink:href="#DejaVuSans-72" transform="translate(1108.105469 0)"/>
      <use xlink:href="#DejaVuSans-20" transform="translate(1149.21875 0)"/>
      <use xlink:href="#DejaVuSans-69" transform="translate(1181.005859 0)"/>
      <use xlink:href="#DejaVuSans-6e" transform="translate(1208.789062 0)"/>
      <use xlink:href="#DejaVuSans-74" transform="translate(1272.167969 0)"/>
      <use xlink:href="#DejaVuSans-65" transform="translate(1311.376953 0)"/>
      <use xlink:href="#DejaVuSans-72" transform="translate(1372.900391 0)"/>
      <use xlink:href="#DejaVuSans-76" transform="translate(1414.013672 0)"/>
      <use xlink:href="#DejaVuSans-61" transform="translate(1473.193359 0)"/>
      <use xlink:href="#DejaVuSans-6c" transform="translate(1534.472656 0)"/>
     </g>
    </g>
   </g>
   <g id="LineCollection_1">
    <path d="M 68.235 290.962737 
L 68.235 282.586092 
" clip-path="url(#p5959cf2e88)" style="fill: none; stroke: #1f77b4; stroke-width: 1.5"/>
    <path d="M 70.151194 299.396705 
L 70.151194 290.026495 
" clip-path="url(#p5959cf2e88)" style="fill: none; stroke: #1f77b4; stroke-width: 1.5"/>
    <path d="M 75.899777 299.519849 
L 75.899777 289.229232 
" clip-path="url(#p5959cf2e88)" style="fill: none; stroke: #1f77b4; stroke-width: 1.5"/>
    <path d="M 81.64836 305.486182 
L 81.64836 296.32623 
" clip-path="url(#p5959cf2e88)" style="fill: none; stroke: #1f77b4; stroke-width: 1.5"/>
    <path d="M 87.396943 296.503842 
L 87.396943 286.814602 
" clip-path="url(#p5959cf2e88)" style="fill: none; stroke: #1f77b4; stroke-width: 1.5"/>
    <path d="M 93.145526 304.626745 
L 93.145526 295.362633 
" clip-path="url(#p5959cf2e88)" style="fill: none; stroke: #1f77b4; stroke-width: 1.5"/>
    <path d="M 98.894109 295.643361 
L 98.894109 286.090856 
" clip-path="url(#p5959cf2e88)" style="fill: none; stroke: #1f77b4; stroke-width: 1.5"/>
    <path d="M 104.642692 304.157976 
L 104.642692 293.541379 
" clip-path="url(#p5959cf2e88)" style="fill: none; stroke: #1f77b4; stroke-width: 1.5"/>
    <path d="M 110.391275 296.045033 
L 110.391275 286.165871 
" clip-path="url(#p5959cf2e88)" style="fill: none; stroke: #1f77b4; stroke-width: 1.5"/>
    <path d="M 116.139858 304.234589 
L 116.139858 294.534113 
" clip-path="url(#p5959cf2e88)" style="fill: none; stroke: #1f77b4; stroke-width: 1.5"/>
    <path d="M 121.888441 301.304589 
L 121.888441 291.854866 
" clip-path="url(#p5959cf2e88)" style="fill: none; stroke: #1f77b4; stroke-width: 1.5"/>
    <path d="M 127.637024 294.155462 
L 127.637024 284.639623 
" clip-path="url(#p5959cf2e88)" style="fill: none; stroke: #1f77b4; stroke-width: 1.5"/>
    <path d="M 133.385607 291.66329 
L 133.385607 280.355113 
" clip-path="url(#p5959cf2e88)" style="fill: none; stroke: #1f77b4; stroke-width: 1.5"/>
    <path d="M 139.13419 302.55997 
L 139.13419 294.046142 
" clip-path="url(#p5959cf2e88)" style="fill: none; stroke: #1f77b4; stroke-width: 1.5"/>
    <path d="M 144.882773 289.260908 
L 144.882773 279.494805 
" clip-path="url(#p5959cf2e88)" style="fill: none; stroke: #1f77b4; stroke-width: 1.5"/>
    <path d="M 150.631356 303.540377 
L 150.631356 292.686144 
" clip-path="url(#p5959cf2e88)" style="fill: none; stroke: #1f77b4; stroke-width: 1.5"/>
    <path d="M 156.379939 294.336849 
L 156.379939 284.327448 
" clip-path="url(#p5959cf2e88)" style="fill: none; stroke: #1f77b4; stroke-width: 1.5"/>
    <path d="M 162.128522 292.034154 
L 162.128522 280.991308 
" clip-path="url(#p5959cf2e88)" style="fill: none; stroke: #1f77b4; stroke-width: 1.5"/>
    <path d="M 167.877105 289.145223 
L 167.877105 278.340552 
" clip-path="url(#p5959cf2e88)" style="fill: none; stroke: #1f77b4; stroke-width: 1.5"/>
    <path d="M 173.625688 297.048389 
L 173.625688 287.377717 
" clip-path="url(#p5959cf2e88)" style="fill: none; stroke: #1f77b4; stroke-width: 1.5"/>
    <path d="M 179.374271 302.22049 
L 179.374271 291.177496 
" clip-path="url(#p5959cf2e88)" style="fill: none; stroke: #1f77b4; stroke-width: 1.5"/>
    <path d="M 185.122854 293.580743 
L 185.122854 282.152661 
" clip-path="url(#p5959cf2e88)" style="fill: none; stroke: #1f77b4; stroke-width: 1.5"/>
    <path d="M 190.871437 297.911784 
L 190.871437 289.121083 
" clip-path="url(#p5959cf2e88)" style="fill: none; stroke: #1f77b4; stroke-width: 1.5"/>
    <path d="M 196.62002 285.802134 
L 196.62002 274.833738 
" clip-path="url(#p5959cf2e88)" style="fill: none; stroke: #1f77b4; stroke-width: 1.5"/>
    <path d="M 202.368603 285.979647 
L 202.368603 275.458622 
" clip-path="url(#p5959cf2e88)" style="fill: none; stroke: #1f77b4; stroke-width: 1.5"/>
    <path d="M 208.117186 271.89091 
L 208.117186 260.273675 
" clip-path="url(#p5959cf2e88)" style="fill: none; stroke: #1f77b4; stroke-width: 1.5"/>
    <path d="M 213.865769 263.553311 
L 213.865769 251.932414 
" clip-path="url(#p5959cf2e88)" style="fill: none; stroke: #1f77b4; stroke-width: 1.5"/>
    <path d="M 219.614352 284.996955 
L 219.614352 275.829802 
" clip-path="url(#p5959cf2e88)" style="fill: none; stroke: #1f77b4; stroke-width: 1.5"/>
    <path d="M 225.362935 271.811402 
L 225.362935 259.684216 
" clip-path="url(#p5959cf2e88)" style="fill: none; stroke: #1f77b4; stroke-width: 1.5"/>
    <path d="M 231.111518 277.053332 
L 231.111518 265.183894 
" clip-path="url(#p5959cf2e88)" style="fill: none; stroke: #1f77b4; stroke-width: 1.5"/>
    <path d="M 236.860101 272.846609 
L 236.860101 261.177081 
" clip-path="url(#p5959cf2e88)" style="fill: none; stroke: #1f77b4; stroke-width: 1.5"/>
    <path d="M 242.608684 283.165287 
L 242.608684 270.897081 
" clip-path="url(#p5959cf2e88)" style="fill: none; stroke: #1f77b4; stroke-width: 1.5"/>
    <path d="M 248.357267 279.253766 
L 248.357267 266.314853 
" clip-path="url(#p5959cf2e88)" style="fill: none; stroke: #1f77b4; stroke-width: 1.5"/>
    <path d="M 254.10585 278.868955 
L 254.10585 265.016895 
" clip-path="url(#p5959cf2e88)" style="fill: none; stroke: #1f77b4; stroke-width: 1.5"/>
    <path d="M 259.854433 280.868566 
L 259.854433 269.770871 
" clip-path="url(#p5959cf2e88)" style="fill: none; stroke: #1f77b4; stroke-width: 1.5"/>
    <path d="M 265.603016 292.374963 
L 265.603016 280.440765 
" clip-path="url(#p5959cf2e88)" style="fill: none; stroke: #1f77b4; stroke-width: 1.5"/>
    <path d="M 271.351599 288.242103 
L 271.351599 277.791369 
" clip-path="url(#p5959cf2e88)" style="fill: none; stroke: #1f77b4; stroke-width: 1.5"/>
    <path d="M 277.100182 278.2185 
L 277.100182 267.632217 
" clip-path="url(#p5959cf2e88)" style="fill: none; stroke: #1f77b4; stroke-width: 1.5"/>
    <path d="M 282.848765 284.553689 
L 282.848765 272.472906 
" clip-path="url(#p5959cf2e88)" style="fill: none; stroke: #1f77b4; stroke-width: 1.5"/>
    <path d="M 288.597348 282.632551 
L 288.597348 271.66467 
" clip-path="url(#p5959cf2e88)" style="fill: none; stroke: #1f77b4; stroke-width: 1.5"/>
    <path d="M 294.345931 272.179637 
L 294.345931 261.21963 
" clip-path="url(#p5959cf2e88)" style="fill: none; stroke: #1f77b4; stroke-width: 1.5"/>
    <path d="M 300.094514 275.010758 
L 300.094514 264.948686 
" clip-path="url(#p5959cf2e88)" style="fill: none; stroke: #1f77b4; stroke-width: 1.5"/>
    <path d="M 305.843097 269.412051 
L 305.843097 259.728616 
" clip-path="url(#p5959cf2e88)" style="fill: none; stroke: #1f77b4; stroke-width: 1.5"/>
    <path d="M 311.59168 241.184 
L 311.59168 229.193398 
" clip-path="url(#p5959cf2e88)" style="fill: none; stroke: #1f77b4; stroke-width: 1.5"/>
    <path d="M 317.340263 232.124527 
L 317.340263 218.492579 
" clip-path="url(#p5959cf2e88)" style="fill: none; stroke: #1f77b4; stroke-width: 1.5"/>
    <path d="M 323.088846 211.699573 
L 323.088846 200.694666 
" clip-path="url(#p5959cf2e88)" style="fill: none; stroke: #1f77b4; stroke-width: 1.5"/>
    <path d="M 328.837429 193.942264 
L 328.837429 181.134211 
" clip-path="url(#p5959cf2e88)" style="fill: none; stroke: #1f77b4; stroke-width: 1.5"/>
    <path d="M 334.586012 126.664107 
L 334.586012 54.409818 
" clip-path="url(#p5959cf2e88)" style="fill: none; stroke: #1f77b4; stroke-width: 1.5"/>
    <path d="M 340.334595 142.752425 
L 340.334595 124.404172 
" clip-path="url(#p5959cf2e88)" style="fill: none; stroke: #1f77b4; stroke-width: 1.5"/>
    <path d="M 346.083178 129.65383 
L 346.083178 115.579154 
" clip-path="url(#p5959cf2e88)" style="fill: none; stroke: #1f77b4; stroke-width: 1.5"/>
    <path d="M 351.831761 174.66769 
L 351.831761 159.170789 
" clip-path="url(#p5959cf2e88)" style="fill: none; stroke: #1f77b4; stroke-width: 1.5"/>
    <path d="M 357.580344 195.836084 
L 357.580344 183.408444 
" clip-path="url(#p5959cf2e88)" style="fill: none; stroke: #1f77b4; stroke-width: 1.5"/>
    <path d="M 363.328927 203.631589 
L 363.328927 188.472624 
" clip-path="url(#p5959cf2e88)" style="fill: none; stroke: #1f77b4; stroke-width: 1.5"/>
    <path d="M 369.07751 223.604185 
L 369.07751 207.783407 
" clip-path="url(#p5959cf2e88)" style="fill: none; stroke: #1f77b4; stroke-width: 1.5"/>
    <path d="M 374.826093 226.944992 
L 374.826093 212.656279 
" clip-path="url(#p5959cf2e88)" style="fill: none; stroke: #1f77b4; stroke-width: 1.5"/>
    <path d="M 380.574676 235.965962 
L 380.574676 224.68247 
" clip-path="url(#p5959cf2e88)" style="fill: none; stroke: #1f77b4; stroke-width: 1.5"/>
    <path d="M 386.323259 255.413964 
L 386.323259 241.893214 
" clip-path="url(#p5959cf2e88)" style="fill: none; stroke: #1f77b4; stroke-width: 1.5"/>
    <path d="M 392.071842 246.318842 
L 392.071842 234.772046 
" clip-path="url(#p5959cf2e88)" style="fill: none; stroke: #1f77b4; stroke-width: 1.5"/>
    <path d="M 397.820425 247.321919 
L 397.820425 235.252987 
" clip-path="url(#p5959cf2e88)" style="fill: none; stroke: #1f77b4; stroke-width: 1.5"/>
    <path d="M 403.569008 237.244801 
L 403.569008 203.336032 
" clip-path="url(#p5959cf2e88)" style="fill: none; stroke: #1f77b4; stroke-width: 1.5"/>
    <path d="M 409.317591 246.358958 
L 409.317591 233.157003 
" clip-path="url(#p5959cf2e88)" style="fill: none; stroke: #1f77b4; stroke-width: 1.5"/>
    <path d="M 415.066174 254.173525 
L 415.066174 240.555516 
" clip-path="url(#p5959cf2e88)" style="fill: none; stroke: #1f77b4; stroke-width: 1.5"/>
    <path d="M 420.814757 242.777963 
L 420.814757 230.351966 
" clip-path="url(#p5959cf2e88)" style="fill: none; stroke: #1f77b4; stroke-width: 1.5"/>
    <path d="M 426.56334 250.039993 
L 426.56334 236.343116 
" clip-path="url(#p5959cf2e88)" style="fill: none; stroke: #1f77b4; stroke-width: 1.5"/>
    <path d="M 432.311923 237.371342 
L 432.311923 222.365769 
" clip-path="url(#p5959cf2e88)" style="fill: none; stroke: #1f77b4; stroke-width: 1.5"/>
    <path d="M 438.060506 255.011067 
L 438.060506 244.585896 
" clip-path="url(#p5959cf2e88)" style="fill: none; stroke: #1f77b4; stroke-width: 1.5"/>
    <path d="M 443.809089 249.692907 
L 443.809089 235.589356 
" clip-path="url(#p5959cf2e88)" style="fill: none; stroke: #1f77b4; stroke-width: 1.5"/>
    <path d="M 449.557672 248.76874 
L 449.557672 235.127337 
" clip-path="url(#p5959cf2e88)" style="fill: none; stroke: #1f77b4; stroke-width: 1.5"/>
    <path d="M 455.306255 242.856577 
L 455.306255 227.511289 
" clip-path="url(#p5959cf2e88)" style="fill: none; stroke: #1f77b4; stroke-width: 1.5"/>
    <path d="M 461.054838 247.972722 
L 461.054838 233.112423 
" clip-path="url(#p5959cf2e88)" style="fill: none; stroke: #1f77b4; stroke-width: 1.5"/>
    <path d="M 466.803421 250.170715 
L 466.803421 239.142236 
" clip-path="url(#p5959cf2e88)" style="fill: none; stroke: #1f77b4; stroke-width: 1.5"/>
    <path d="M 472.552004 250.001927 
L 472.552004 237.754108 
" clip-path="url(#p5959cf2e88)" style="fill: none; stroke: #1f77b4; stroke-width: 1.5"/>
    <path d="M 478.300587 253.413704 
L 478.300587 239.374145 
" clip-path="url(#p5959cf2e88)" style="fill: none; stroke: #1f77b4; stroke-width: 1.5"/>
    <path d="M 484.04917 262.408109 
L 484.04917 248.611793 
" clip-path="url(#p5959cf2e88)" style="fill: none; stroke: #1f77b4; stroke-width: 1.5"/>
    <path d="M 489.797753 260.202102 
L 489.797753 246.245828 
" clip-path="url(#p5959cf2e88)" style="fill: none; stroke: #1f77b4; stroke-width: 1.5"/>
    <path d="M 495.546336 248.52191 
L 495.546336 236.132847 
" clip-path="url(#p5959cf2e88)" style="fill: none; stroke: #1f77b4; stroke-width: 1.5"/>
    <path d="M 501.294919 250.88385 
L 501.294919 238.460575 
" clip-path="url(#p5959cf2e88)" style="fill: none; stroke: #1f77b4; stroke-width: 1.5"/>
    <path d="M 507.043502 239.379999 
L 507.043502 226.834912 
" clip-path="url(#p5959cf2e88)" style="fill: none; stroke: #1f77b4; stroke-width: 1.5"/>
    <path d="M 512.792085 241.553113 
L 512.792085 226.600383 
" clip-path="url(#p5959cf2e88)" style="fill: none; stroke: #1f77b4; stroke-width: 1.5"/>
    <path d="M 518.540668 249.02157 
L 518.540668 236.820328 
" clip-path="url(#p5959cf2e88)" style="fill: none; stroke: #1f77b4; stroke-width: 1.5"/>
    <path d="M 524.289251 242.528074 
L 524.289251 229.138122 
" clip-path="url(#p5959cf2e88)" style="fill: none; stroke: #1f77b4; stroke-width: 1.5"/>
    <path d="M 530.037834 246.911936 
L 530.037834 234.116358 
" clip-path="url(#p5959cf2e88)" style="fill: none; stroke: #1f77b4; stroke-width: 1.5"/>
    <path d="M 535.786417 251.893681 
L 535.786417 236.239944 
" clip-path="url(#p5959cf2e88)" style="fill: none; stroke: #1f77b4; stroke-width: 1.5"/>
    <path d="M 541.535 242.514612 
L 541.535 224.320554 
" clip-path="url(#p5959cf2e88)" style="fill: none; stroke: #1f77b4; stroke-width: 1.5"/>
   </g>
   <g id="line2d_27">
    <defs>
     <path id="mfe169c8014" d="M 3 0 
L -3 -0 
" style="stroke: #1f77b4"/>
    </defs>
    <g clip-path="url(#p5959cf2e88)">
     <use xlink:href="#mfe169c8014" x="68.235" y="290.962737" style="fill: #1f77b4; stroke: #1f77b4"/>
     <use xlink:href="#mfe169c8014" x="70.151194" y="299.396705" style="fill: #1f77b4; stroke: #1f77b4"/>
     <use xlink:href="#mfe169c8014" x="75.899777" y="299.519849" style="fill: #1f77b4; stroke: #1f77b4"/>
     <use xlink:href="#mfe169c8014" x="81.64836" y="305.486182" style="fill: #1f77b4; stroke: #1f77b4"/>
     <use xlink:href="#mfe169c8014" x="87.396943" y="296.503842" style="fill: #1f77b4; stroke: #1f77b4"/>
     <use xlink:href="#mfe169c8014" x="93.145526" y="304.626745" style="fill: #1f77b4; stroke: #1f77b4"/>
     <use xlink:href="#mfe169c8014" x="98.894109" y="295.643361" style="fill: #1f77b4; stroke: #1f77b4"/>
     <use xlink:href="#mfe169c8014" x="104.642692" y="304.157976" style="fill: #1f77b4; stroke: #1f77b4"/>
     <use xlink:href="#mfe169c8014" x="110.391275" y="296.045033" style="fill: #1f77b4; stroke: #1f77b4"/>
     <use xlink:href="#mfe169c8014" x="116.139858" y="304.234589" style="fill: #1f77b4; stroke: #1f77b4"/>
     <use xlink:href="#mfe169c8014" x="121.888441" y="301.304589" style="fill: #1f77b4; stroke: #1f77b4"/>
     <use xlink:href="#mfe169c8014" x="127.637024" y="294.155462" style="fill: #1f77b4; stroke: #1f77b4"/>
     <use xlink:href="#mfe169c8014" x="133.385607" y="291.66329" style="fill: #1f77b4; stroke: #1f77b4"/>
     <use xlink:href="#mfe169c8014" x="139.13419" y="302.55997" style="fill: #1f77b4; stroke: #1f77b4"/>
     <use xlink:href="#mfe169c8014" x="144.882773" y="289.260908" style="fill: #1f77b4; stroke: #1f77b4"/>
     <use xlink:href="#mfe169c8014" x="150.631356" y="303.540377" style="fill: #1f77b4; stroke: #1f77b4"/>
     <use xlink:href="#mfe169c8014" x="156.379939" y="294.336849" style="fill: #1f77b4; stroke: #1f77b4"/>
     <use xlink:href="#mfe169c8014" x="162.128522" y="292.034154" style="fill: #1f77b4; stroke: #1f77b4"/>
     <use xlink:href="#mfe169c8014" x="167.877105" y="289.145223" style="fill: #1f77b4; stroke: #1f77b4"/>
     <use xlink:href="#mfe169c8014" x="173.625688" y="297.048389" style="fill: #1f77b4; stroke: #1f77b4"/>
     <use xlink:href="#mfe169c8014" x="179.374271" y="302.22049" style="fill: #1f77b4; stroke: #1f77b4"/>
     <use xlink:href="#mfe169c8014" x="185.122854" y="293.580743" style="fill: #1f77b4; stroke: #1f77b4"/>
     <use xlink:href="#mfe169c8014" x="190.871437" y="297.911784" style="fill: #1f77b4; stroke: #1f77b4"/>
     <use xlink:href="#mfe169c8014" x="196.62002" y="285.802134" style="fill: #1f77b4; stroke: #1f77b4"/>
     <use xlink:href="#mfe169c8014" x="202.368603" y="285.979647" style="fill: #1f77b4; stroke: #1f77b4"/>
     <use xlink:href="#mfe169c8014" x="208.117186" y="271.89091" style="fill: #1f77b4; stroke: #1f77b4"/>
     <use xlink:href="#mfe169c8014" x="213.865769" y="263.553311" style="fill: #1f77b4; stroke: #1f77b4"/>
     <use xlink:href="#mfe169c8014" x="219.614352" y="284.996955" style="fill: #1f77b4; stroke: #1f77b4"/>
     <use xlink:href="#mfe169c8014" x="225.362935" y="271.811402" style="fill: #1f77b4; stroke: #1f77b4"/>
     <use xlink:href="#mfe169c8014" x="231.111518" y="277.053332" style="fill: #1f77b4; stroke: #1f77b4"/>
     <use xlink:href="#mfe169c8014" x="236.860101" y="272.846609" style="fill: #1f77b4; stroke: #1f77b4"/>
     <use xlink:href="#mfe169c8014" x="242.608684" y="283.165287" style="fill: #1f77b4; stroke: #1f77b4"/>
     <use xlink:href="#mfe169c8014" x="248.357267" y="279.253766" style="fill: #1f77b4; stroke: #1f77b4"/>
     <use xlink:href="#mfe169c8014" x="254.10585" y="278.868955" style="fill: #1f77b4; stroke: #1f77b4"/>
     <use xlink:href="#mfe169c8014" x="259.854433" y="280.868566" style="fill: #1f77b4; stroke: #1f77b4"/>
     <use xlink:href="#mfe169c8014" x="265.603016" y="292.374963" style="fill: #1f77b4; stroke: #1f77b4"/>
     <use xlink:href="#mfe169c8014" x="271.351599" y="288.242103" style="fill: #1f77b4; stroke: #1f77b4"/>
     <use xlink:href="#mfe169c8014" x="277.100182" y="278.2185" style="fill: #1f77b4; stroke: #1f77b4"/>
     <use xlink:href="#mfe169c8014" x="282.848765" y="284.553689" style="fill: #1f77b4; stroke: #1f77b4"/>
     <use xlink:href="#mfe169c8014" x="288.597348" y="282.632551" style="fill: #1f77b4; stroke: #1f77b4"/>
     <use xlink:href="#mfe169c8014" x="294.345931" y="272.179637" style="fill: #1f77b4; stroke: #1f77b4"/>
     <use xlink:href="#mfe169c8014" x="300.094514" y="275.010758" style="fill: #1f77b4; stroke: #1f77b4"/>
     <use xlink:href="#mfe169c8014" x="305.843097" y="269.412051" style="fill: #1f77b4; stroke: #1f77b4"/>
     <use xlink:href="#mfe169c8014" x="311.59168" y="241.184" style="fill: #1f77b4; stroke: #1f77b4"/>
     <use xlink:href="#mfe169c8014" x="317.340263" y="232.124527" style="fill: #1f77b4; stroke: #1f77b4"/>
     <use xlink:href="#mfe169c8014" x="323.088846" y="211.699573" style="fill: #1f77b4; stroke: #1f77b4"/>
     <use xlink:href="#mfe169c8014" x="328.837429" y="193.942264" style="fill: #1f77b4; stroke: #1f77b4"/>
     <use xlink:href="#mfe169c8014" x="334.586012" y="126.664107" style="fill: #1f77b4; stroke: #1f77b4"/>
     <use xlink:href="#mfe169c8014" x="340.334595" y="142.752425" style="fill: #1f77b4; stroke: #1f77b4"/>
     <use xlink:href="#mfe169c8014" x="346.083178" y="129.65383" style="fill: #1f77b4; stroke: #1f77b4"/>
     <use xlink:href="#mfe169c8014" x="351.831761" y="174.66769" style="fill: #1f77b4; stroke: #1f77b4"/>
     <use xlink:href="#mfe169c8014" x="357.580344" y="195.836084" style="fill: #1f77b4; stroke: #1f77b4"/>
     <use xlink:href="#mfe169c8014" x="363.328927" y="203.631589" style="fill: #1f77b4; stroke: #1f77b4"/>
     <use xlink:href="#mfe169c8014" x="369.07751" y="223.604185" style="fill: #1f77b4; stroke: #1f77b4"/>
     <use xlink:href="#mfe169c8014" x="374.826093" y="226.944992" style="fill: #1f77b4; stroke: #1f77b4"/>
     <use xlink:href="#mfe169c8014" x="380.574676" y="235.965962" style="fill: #1f77b4; stroke: #1f77b4"/>
     <use xlink:href="#mfe169c8014" x="386.323259" y="255.413964" style="fill: #1f77b4; stroke: #1f77b4"/>
     <use xlink:href="#mfe169c8014" x="392.071842" y="246.318842" style="fill: #1f77b4; stroke: #1f77b4"/>
     <use xlink:href="#mfe169c8014" x="397.820425" y="247.321919" style="fill: #1f77b4; stroke: #1f77b4"/>
     <use xlink:href="#mfe169c8014" x="403.569008" y="237.244801" style="fill: #1f77b4; stroke: #1f77b4"/>
     <use xlink:href="#mfe169c8014" x="409.317591" y="246.358958" style="fill: #1f77b4; stroke: #1f77b4"/>
     <use xlink:href="#mfe169c8014" x="415.066174" y="254.173525" style="fill: #1f77b4; stroke: #1f77b4"/>
     <use xlink:href="#mfe169c8014" x="420.814757" y="242.777963" style="fill: #1f77b4; stroke: #1f77b4"/>
     <use xlink:href="#mfe169c8014" x="426.56334" y="250.039993" style="fill: #1f77b4; stroke: #1f77b4"/>
     <use xlink:href="#mfe169c8014" x="432.311923" y="237.371342" style="fill: #1f77b4; stroke: #1f77b4"/>
     <use xlink:href="#mfe169c8014" x="438.060506" y="255.011067" style="fill: #1f77b4; stroke: #1f77b4"/>
     <use xlink:href="#mfe169c8014" x="443.809089" y="249.692907" style="fill: #1f77b4; stroke: #1f77b4"/>
     <use xlink:href="#mfe169c8014" x="449.557672" y="248.76874" style="fill: #1f77b4; stroke: #1f77b4"/>
     <use xlink:href="#mfe169c8014" x="455.306255" y="242.856577" style="fill: #1f77b4; stroke: #1f77b4"/>
     <use xlink:href="#mfe169c8014" x="461.054838" y="247.972722" style="fill: #1f77b4; stroke: #1f77b4"/>
     <use xlink:href="#mfe169c8014" x="466.803421" y="250.170715" style="fill: #1f77b4; stroke: #1f77b4"/>
     <use xlink:href="#mfe169c8014" x="472.552004" y="250.001927" style="fill: #1f77b4; stroke: #1f77b4"/>
     <use xlink:href="#mfe169c8014" x="478.300587" y="253.413704" style="fill: #1f77b4; stroke: #1f77b4"/>
     <use xlink:href="#mfe169c8014" x="484.04917" y="262.408109" style="fill: #1f77b4; stroke: #1f77b4"/>
     <use xlink:href="#mfe169c8014" x="489.797753" y="260.202102" style="fill: #1f77b4; stroke: #1f77b4"/>
     <use xlink:href="#mfe169c8014" x="495.546336" y="248.52191" style="fill: #1f77b4; stroke: #1f77b4"/>
     <use xlink:href="#mfe169c8014" x="501.294919" y="250.88385" style="fill: #1f77b4; stroke: #1f77b4"/>
     <use xlink:href="#mfe169c8014" x="507.043502" y="239.379999" style="fill: #1f77b4; stroke: #1f77b4"/>
     <use xlink:href="#mfe169c8014" x="512.792085" y="241.553113" style="fill: #1f77b4; stroke: #1f77b4"/>
     <use xlink:href="#mfe169c8014" x="518.540668" y="249.02157" style="fill: #1f77b4; stroke: #1f77b4"/>
     <use xlink:href="#mfe169c8014" x="524.289251" y="242.528074" style="fill: #1f77b4; stroke: #1f77b4"/>
     <use xlink:href="#mfe169c8014" x="530.037834" y="246.911936" style="fill: #1f77b4; stroke: #1f77b4"/>
     <use xlink:href="#mfe169c8014" x="535.786417" y="251.893681" style="fill: #1f77b4; stroke: #1f77b4"/>
     <use xlink:href="#mfe169c8014" x="541.535" y="242.514612" style="fill: #1f77b4; stroke: #1f77b4"/>
    </g>
   </g>
   <g id="line2d_28">
    <g clip-path="url(#p5959cf2e88)">
     <use xlink:href="#mfe169c8014" x="68.235" y="282.586092" style="fill: #1f77b4; stroke: #1f77b4"/>
     <use xlink:href="#mfe169c8014" x="70.151194" y="290.026495" style="fill: #1f77b4; stroke: #1f77b4"/>
     <use xlink:href="#mfe169c8014" x="75.899777" y="289.229232" style="fill: #1f77b4; stroke: #1f77b4"/>
     <use xlink:href="#mfe169c8014" x="81.64836" y="296.32623" style="fill: #1f77b4; stroke: #1f77b4"/>
     <use xlink:href="#mfe169c8014" x="87.396943" y="286.814602" style="fill: #1f77b4; stroke: #1f77b4"/>
     <use xlink:href="#mfe169c8014" x="93.145526" y="295.362633" style="fill: #1f77b4; stroke: #1f77b4"/>
     <use xlink:href="#mfe169c8014" x="98.894109" y="286.090856" style="fill: #1f77b4; stroke: #1f77b4"/>
     <use xlink:href="#mfe169c8014" x="104.642692" y="293.541379" style="fill: #1f77b4; stroke: #1f77b4"/>
     <use xlink:href="#mfe169c8014" x="110.391275" y="286.165871" style="fill: #1f77b4; stroke: #1f77b4"/>
     <use xlink:href="#mfe169c8014" x="116.139858" y="294.534113" style="fill: #1f77b4; stroke: #1f77b4"/>
     <use xlink:href="#mfe169c8014" x="121.888441" y="291.854866" style="fill: #1f77b4; stroke: #1f77b4"/>
     <use xlink:href="#mfe169c8014" x="127.637024" y="284.639623" style="fill: #1f77b4; stroke: #1f77b4"/>
     <use xlink:href="#mfe169c8014" x="133.385607" y="280.355113" style="fill: #1f77b4; stroke: #1f77b4"/>
     <use xlink:href="#mfe169c8014" x="139.13419" y="294.046142" style="fill: #1f77b4; stroke: #1f77b4"/>
     <use xlink:href="#mfe169c8014" x="144.882773" y="279.494805" style="fill: #1f77b4; stroke: #1f77b4"/>
     <use xlink:href="#mfe169c8014" x="150.631356" y="292.686144" style="fill: #1f77b4; stroke: #1f77b4"/>
     <use xlink:href="#mfe169c8014" x="156.379939" y="284.327448" style="fill: #1f77b4; stroke: #1f77b4"/>
     <use xlink:href="#mfe169c8014" x="162.128522" y="280.991308" style="fill: #1f77b4; stroke: #1f77b4"/>
     <use xlink:href="#mfe169c8014" x="167.877105" y="278.340552" style="fill: #1f77b4; stroke: #1f77b4"/>
     <use xlink:href="#mfe169c8014" x="173.625688" y="287.377717" style="fill: #1f77b4; stroke: #1f77b4"/>
     <use xlink:href="#mfe169c8014" x="179.374271" y="291.177496" style="fill: #1f77b4; stroke: #1f77b4"/>
     <use xlink:href="#mfe169c8014" x="185.122854" y="282.152661" style="fill: #1f77b4; stroke: #1f77b4"/>
     <use xlink:href="#mfe169c8014" x="190.871437" y="289.121083" style="fill: #1f77b4; stroke: #1f77b4"/>
     <use xlink:href="#mfe169c8014" x="196.62002" y="274.833738" style="fill: #1f77b4; stroke: #1f77b4"/>
     <use xlink:href="#mfe169c8014" x="202.368603" y="275.458622" style="fill: #1f77b4; stroke: #1f77b4"/>
     <use xlink:href="#mfe169c8014" x="208.117186" y="260.273675" style="fill: #1f77b4; stroke: #1f77b4"/>
     <use xlink:href="#mfe169c8014" x="213.865769" y="251.932414" style="fill: #1f77b4; stroke: #1f77b4"/>
     <use xlink:href="#mfe169c8014" x="219.614352" y="275.829802" style="fill: #1f77b4; stroke: #1f77b4"/>
     <use xlink:href="#mfe169c8014" x="225.362935" y="259.684216" style="fill: #1f77b4; stroke: #1f77b4"/>
     <use xlink:href="#mfe169c8014" x="231.111518" y="265.183894" style="fill: #1f77b4; stroke: #1f77b4"/>
     <use xlink:href="#mfe169c8014" x="236.860101" y="261.177081" style="fill: #1f77b4; stroke: #1f77b4"/>
     <use xlink:href="#mfe169c8014" x="242.608684" y="270.897081" style="fill: #1f77b4; stroke: #1f77b4"/>
     <use xlink:href="#mfe169c8014" x="248.357267" y="266.314853" style="fill: #1f77b4; stroke: #1f77b4"/>
     <use xlink:href="#mfe169c8014" x="254.10585" y="265.016895" style="fill: #1f77b4; stroke: #1f77b4"/>
     <use xlink:href="#mfe169c8014" x="259.854433" y="269.770871" style="fill: #1f77b4; stroke: #1f77b4"/>
     <use xlink:href="#mfe169c8014" x="265.603016" y="280.440765" style="fill: #1f77b4; stroke: #1f77b4"/>
     <use xlink:href="#mfe169c8014" x="271.351599" y="277.791369" style="fill: #1f77b4; stroke: #1f77b4"/>
     <use xlink:href="#mfe169c8014" x="277.100182" y="267.632217" style="fill: #1f77b4; stroke: #1f77b4"/>
     <use xlink:href="#mfe169c8014" x="282.848765" y="272.472906" style="fill: #1f77b4; stroke: #1f77b4"/>
     <use xlink:href="#mfe169c8014" x="288.597348" y="271.66467" style="fill: #1f77b4; stroke: #1f77b4"/>
     <use xlink:href="#mfe169c8014" x="294.345931" y="261.21963" style="fill: #1f77b4; stroke: #1f77b4"/>
     <use xlink:href="#mfe169c8014" x="300.094514" y="264.948686" style="fill: #1f77b4; stroke: #1f77b4"/>
     <use xlink:href="#mfe169c8014" x="305.843097" y="259.728616" style="fill: #1f77b4; stroke: #1f77b4"/>
     <use xlink:href="#mfe169c8014" x="311.59168" y="229.193398" style="fill: #1f77b4; stroke: #1f77b4"/>
     <use xlink:href="#mfe169c8014" x="317.340263" y="218.492579" style="fill: #1f77b4; stroke: #1f77b4"/>
     <use xlink:href="#mfe169c8014" x="323.088846" y="200.694666" style="fill: #1f77b4; stroke: #1f77b4"/>
     <use xlink:href="#mfe169c8014" x="328.837429" y="181.134211" style="fill: #1f77b4; stroke: #1f77b4"/>
     <use xlink:href="#mfe169c8014" x="334.586012" y="54.409818" style="fill: #1f77b4; stroke: #1f77b4"/>
     <use xlink:href="#mfe169c8014" x="340.334595" y="124.404172" style="fill: #1f77b4; stroke: #1f77b4"/>
     <use xlink:href="#mfe169c8014" x="346.083178" y="115.579154" style="fill: #1f77b4; stroke: #1f77b4"/>
     <use xlink:href="#mfe169c8014" x="351.831761" y="159.170789" style="fill: #1f77b4; stroke: #1f77b4"/>
     <use xlink:href="#mfe169c8014" x="357.580344" y="183.408444" style="fill: #1f77b4; stroke: #1f77b4"/>
     <use xlink:href="#mfe169c8014" x="363.328927" y="188.472624" style="fill: #1f77b4; stroke: #1f77b4"/>
     <use xlink:href="#mfe169c8014" x="369.07751" y="207.783407" style="fill: #1f77b4; stroke: #1f77b4"/>
     <use xlink:href="#mfe169c8014" x="374.826093" y="212.656279" style="fill: #1f77b4; stroke: #1f77b4"/>
     <use xlink:href="#mfe169c8014" x="380.574676" y="224.68247" style="fill: #1f77b4; stroke: #1f77b4"/>
     <use xlink:href="#mfe169c8014" x="386.323259" y="241.893214" style="fill: #1f77b4; stroke: #1f77b4"/>
     <use xlink:href="#mfe169c8014" x="392.071842" y="234.772046" style="fill: #1f77b4; stroke: #1f77b4"/>
     <use xlink:href="#mfe169c8014" x="397.820425" y="235.252987" style="fill: #1f77b4; stroke: #1f77b4"/>
     <use xlink:href="#mfe169c8014" x="403.569008" y="203.336032" style="fill: #1f77b4; stroke: #1f77b4"/>
     <use xlink:href="#mfe169c8014" x="409.317591" y="233.157003" style="fill: #1f77b4; stroke: #1f77b4"/>
     <use xlink:href="#mfe169c8014" x="415.066174" y="240.555516" style="fill: #1f77b4; stroke: #1f77b4"/>
     <use xlink:href="#mfe169c8014" x="420.814757" y="230.351966" style="fill: #1f77b4; stroke: #1f77b4"/>
     <use xlink:href="#mfe169c8014" x="426.56334" y="236.343116" style="fill: #1f77b4; stroke: #1f77b4"/>
     <use xlink:href="#mfe169c8014" x="432.311923" y="222.365769" style="fill: #1f77b4; stroke: #1f77b4"/>
     <use xlink:href="#mfe169c8014" x="438.060506" y="244.585896" style="fill: #1f77b4; stroke: #1f77b4"/>
     <use xlink:href="#mfe169c8014" x="443.809089" y="235.589356" style="fill: #1f77b4; stroke: #1f77b4"/>
     <use xlink:href="#mfe169c8014" x="449.557672" y="235.127337" style="fill: #1f77b4; stroke: #1f77b4"/>
     <use xlink:href="#mfe169c8014" x="455.306255" y="227.511289" style="fill: #1f77b4; stroke: #1f77b4"/>
     <use xlink:href="#mfe169c8014" x="461.054838" y="233.112423" style="fill: #1f77b4; stroke: #1f77b4"/>
     <use xlink:href="#mfe169c8014" x="466.803421" y="239.142236" style="fill: #1f77b4; stroke: #1f77b4"/>
     <use xlink:href="#mfe169c8014" x="472.552004" y="237.754108" style="fill: #1f77b4; stroke: #1f77b4"/>
     <use xlink:href="#mfe169c8014" x="478.300587" y="239.374145" style="fill: #1f77b4; stroke: #1f77b4"/>
     <use xlink:href="#mfe169c8014" x="484.04917" y="248.611793" style="fill: #1f77b4; stroke: #1f77b4"/>
     <use xlink:href="#mfe169c8014" x="489.797753" y="246.245828" style="fill: #1f77b4; stroke: #1f77b4"/>
     <use xlink:href="#mfe169c8014" x="495.546336" y="236.132847" style="fill: #1f77b4; stroke: #1f77b4"/>
     <use xlink:href="#mfe169c8014" x="501.294919" y="238.460575" style="fill: #1f77b4; stroke: #1f77b4"/>
     <use xlink:href="#mfe169c8014" x="507.043502" y="226.834912" style="fill: #1f77b4; stroke: #1f77b4"/>
     <use xlink:href="#mfe169c8014" x="512.792085" y="226.600383" style="fill: #1f77b4; stroke: #1f77b4"/>
     <use xlink:href="#mfe169c8014" x="518.540668" y="236.820328" style="fill: #1f77b4; stroke: #1f77b4"/>
     <use xlink:href="#mfe169c8014" x="524.289251" y="229.138122" style="fill: #1f77b4; stroke: #1f77b4"/>
     <use xlink:href="#mfe169c8014" x="530.037834" y="234.116358" style="fill: #1f77b4; stroke: #1f77b4"/>
     <use xlink:href="#mfe169c8014" x="535.786417" y="236.239944" style="fill: #1f77b4; stroke: #1f77b4"/>
     <use xlink:href="#mfe169c8014" x="541.535" y="224.320554" style="fill: #1f77b4; stroke: #1f77b4"/>
    </g>
   </g>
   <g id="line2d_29">
    <path d="M 68.235 293.91196 
L 94.292558 293.703903 
L 106.136902 294.039075 
L 117.507472 294.28749 
L 125.561627 294.227671 
L 135.037102 293.914039 
L 148.776542 293.466645 
L 156.830696 293.451669 
L 169.622588 293.474492 
L 173.886552 293.236587 
L 177.676742 292.792328 
L 180.993158 292.165176 
L 183.835801 291.415436 
L 186.678443 290.445404 
L 189.521086 289.238211 
L 192.363729 287.784719 
L 195.206371 286.084942 
L 198.049014 284.149163 
L 201.36543 281.621476 
L 205.155621 278.444397 
L 210.840906 273.346988 
L 216.999965 267.900855 
L 220.316381 265.252697 
L 223.159024 263.258988 
L 225.527893 261.846898 
L 227.896762 260.701583 
L 229.791857 259.999518 
L 231.686952 259.503145 
L 233.582047 259.223579 
L 235.477142 259.168746 
L 237.372237 259.343087 
L 239.267332 259.747323 
L 241.162427 260.378266 
L 243.057523 261.228712 
L 244.952618 262.287389 
L 247.321486 263.879855 
L 249.690355 265.734959 
L 252.532998 268.240252 
L 256.796962 272.361056 
L 262.956021 278.359792 
L 265.798664 280.834029 
L 268.167533 282.622721 
L 270.062628 283.823579 
L 271.957723 284.78298 
L 273.852818 285.469761 
L 275.274139 285.789087 
L 276.69546 285.929078 
L 278.116782 285.880826 
L 279.538103 285.636911 
L 280.959424 285.191501 
L 282.380746 284.540436 
L 283.802067 283.681302 
L 285.223388 282.613484 
L 287.118483 280.867495 
L 289.013579 278.760964 
L 290.908674 276.307838 
L 292.803769 273.527857 
L 295.172638 269.632362 
L 297.541507 265.327216 
L 300.384149 259.723552 
L 304.648113 250.731087 
L 312.228493 234.611196 
L 315.071136 229.078021 
L 317.440005 224.8763 
L 319.808874 221.142583 
L 321.703969 218.546973 
L 323.599064 216.338652 
L 325.020385 214.955362 
L 326.441707 213.818359 
L 327.863028 212.936679 
L 329.284349 212.317365 
L 330.705671 211.965397 
L 332.126992 211.883647 
L 333.548313 212.072852 
L 334.969635 212.531601 
L 336.390956 213.256351 
L 337.812277 214.241454 
L 339.233599 215.479211 
L 340.65492 216.959938 
L 342.550015 219.291924 
L 344.44511 222.002721 
L 346.813979 225.86639 
L 349.182848 230.180096 
L 352.02549 235.820661 
L 356.289454 244.871263 
L 363.396061 260.03733 
L 366.712477 266.515843 
L 369.081346 270.718655 
L 371.450215 274.484476 
L 373.34531 277.141703 
L 375.240405 279.455936 
L 377.135501 281.408321 
L 379.030596 282.985966 
L 380.451917 283.918931 
L 381.873238 284.636471 
L 383.29456 285.139814 
L 384.715881 285.432028 
L 386.137202 285.517968 
L 387.558524 285.404195 
L 388.979845 285.098889 
L 390.401166 284.611745 
L 392.296261 283.69872 
L 394.191356 282.512038 
L 396.086451 281.084869 
L 398.45532 279.017723 
L 401.297963 276.221005 
L 405.561927 271.660774 
L 411.247212 265.602041 
L 414.089855 262.861726 
L 416.458724 260.830665 
L 418.827593 259.083837 
L 420.722688 257.919184 
L 422.617783 256.97973 
L 424.512878 256.277818 
L 426.407973 255.821499 
L 428.303068 255.614561 
L 430.198163 255.656637 
L 432.093258 255.943372 
L 433.988353 256.466671 
L 435.883448 257.214986 
L 437.778544 258.173666 
L 440.147412 259.641153 
L 442.516281 261.371172 
L 445.358924 263.732823 
L 448.67534 266.780826 
L 454.360626 272.379853 
L 460.519685 278.361573 
L 464.309875 281.721211 
L 467.626291 284.350775 
L 470.468934 286.334547 
L 473.311577 288.05014 
L 476.154219 289.49186 
L 478.996862 290.664685 
L 481.839505 291.582923 
L 484.682147 292.268572 
L 487.998564 292.81194 
L 491.31498 293.127559 
L 495.578944 293.285466 
L 501.264229 293.240562 
L 514.529895 293.048233 
L 521.636502 293.221229 
L 532.059525 293.745094 
L 541.535 294.167731 
L 541.535 294.167731 
" clip-path="url(#p5959cf2e88)" style="fill: none; stroke: #ff7f0e; stroke-width: 1.5; stroke-linecap: square"/>
   </g>
   <g id="line2d_30">
    <defs>
     <path id="m4a5f19d8ae" d="M 0 3 
C 0.795609 3 1.55874 2.683901 2.12132 2.12132 
C 2.683901 1.55874 3 0.795609 3 0 
C 3 -0.795609 2.683901 -1.55874 2.12132 -2.12132 
C 1.55874 -2.683901 0.795609 -3 0 -3 
C -0.795609 -3 -1.55874 -2.683901 -2.12132 -2.12132 
C -2.683901 -1.55874 -3 -0.795609 -3 0 
C -3 0.795609 -2.683901 1.55874 -2.12132 2.12132 
C -1.55874 2.683901 -0.795609 3 0 3 
z
" style="stroke: #1f77b4"/>
    </defs>
    <g clip-path="url(#p5959cf2e88)">
     <use xlink:href="#m4a5f19d8ae" x="68.235" y="286.774415" style="fill: #1f77b4; stroke: #1f77b4"/>
     <use xlink:href="#m4a5f19d8ae" x="70.151194" y="294.7116" style="fill: #1f77b4; stroke: #1f77b4"/>
     <use xlink:href="#m4a5f19d8ae" x="75.899777" y="294.37454" style="fill: #1f77b4; stroke: #1f77b4"/>
     <use xlink:href="#m4a5f19d8ae" x="81.64836" y="300.906206" style="fill: #1f77b4; stroke: #1f77b4"/>
     <use xlink:href="#m4a5f19d8ae" x="87.396943" y="291.659222" style="fill: #1f77b4; stroke: #1f77b4"/>
     <use xlink:href="#m4a5f19d8ae" x="93.145526" y="299.994689" style="fill: #1f77b4; stroke: #1f77b4"/>
     <use xlink:href="#m4a5f19d8ae" x="98.894109" y="290.867109" style="fill: #1f77b4; stroke: #1f77b4"/>
     <use xlink:href="#m4a5f19d8ae" x="104.642692" y="298.849678" style="fill: #1f77b4; stroke: #1f77b4"/>
     <use xlink:href="#m4a5f19d8ae" x="110.391275" y="291.105452" style="fill: #1f77b4; stroke: #1f77b4"/>
     <use xlink:href="#m4a5f19d8ae" x="116.139858" y="299.384351" style="fill: #1f77b4; stroke: #1f77b4"/>
     <use xlink:href="#m4a5f19d8ae" x="121.888441" y="296.579727" style="fill: #1f77b4; stroke: #1f77b4"/>
     <use xlink:href="#m4a5f19d8ae" x="127.637024" y="289.397543" style="fill: #1f77b4; stroke: #1f77b4"/>
     <use xlink:href="#m4a5f19d8ae" x="133.385607" y="286.009201" style="fill: #1f77b4; stroke: #1f77b4"/>
     <use xlink:href="#m4a5f19d8ae" x="139.13419" y="298.303056" style="fill: #1f77b4; stroke: #1f77b4"/>
     <use xlink:href="#m4a5f19d8ae" x="144.882773" y="284.377856" style="fill: #1f77b4; stroke: #1f77b4"/>
     <use xlink:href="#m4a5f19d8ae" x="150.631356" y="298.113261" style="fill: #1f77b4; stroke: #1f77b4"/>
     <use xlink:href="#m4a5f19d8ae" x="156.379939" y="289.332148" style="fill: #1f77b4; stroke: #1f77b4"/>
     <use xlink:href="#m4a5f19d8ae" x="162.128522" y="286.512731" style="fill: #1f77b4; stroke: #1f77b4"/>
     <use xlink:href="#m4a5f19d8ae" x="167.877105" y="283.742888" style="fill: #1f77b4; stroke: #1f77b4"/>
     <use xlink:href="#m4a5f19d8ae" x="173.625688" y="292.213053" style="fill: #1f77b4; stroke: #1f77b4"/>
     <use xlink:href="#m4a5f19d8ae" x="179.374271" y="296.698993" style="fill: #1f77b4; stroke: #1f77b4"/>
     <use xlink:href="#m4a5f19d8ae" x="185.122854" y="287.866702" style="fill: #1f77b4; stroke: #1f77b4"/>
     <use xlink:href="#m4a5f19d8ae" x="190.871437" y="293.516434" style="fill: #1f77b4; stroke: #1f77b4"/>
     <use xlink:href="#m4a5f19d8ae" x="196.62002" y="280.317936" style="fill: #1f77b4; stroke: #1f77b4"/>
     <use xlink:href="#m4a5f19d8ae" x="202.368603" y="280.719135" style="fill: #1f77b4; stroke: #1f77b4"/>
     <use xlink:href="#m4a5f19d8ae" x="208.117186" y="266.082293" style="fill: #1f77b4; stroke: #1f77b4"/>
     <use xlink:href="#m4a5f19d8ae" x="213.865769" y="257.742863" style="fill: #1f77b4; stroke: #1f77b4"/>
     <use xlink:href="#m4a5f19d8ae" x="219.614352" y="280.413378" style="fill: #1f77b4; stroke: #1f77b4"/>
     <use xlink:href="#m4a5f19d8ae" x="225.362935" y="265.747809" style="fill: #1f77b4; stroke: #1f77b4"/>
     <use xlink:href="#m4a5f19d8ae" x="231.111518" y="271.118613" style="fill: #1f77b4; stroke: #1f77b4"/>
     <use xlink:href="#m4a5f19d8ae" x="236.860101" y="267.011845" style="fill: #1f77b4; stroke: #1f77b4"/>
     <use xlink:href="#m4a5f19d8ae" x="242.608684" y="277.031184" style="fill: #1f77b4; stroke: #1f77b4"/>
     <use xlink:href="#m4a5f19d8ae" x="248.357267" y="272.784309" style="fill: #1f77b4; stroke: #1f77b4"/>
     <use xlink:href="#m4a5f19d8ae" x="254.10585" y="271.942925" style="fill: #1f77b4; stroke: #1f77b4"/>
     <use xlink:href="#m4a5f19d8ae" x="259.854433" y="275.319719" style="fill: #1f77b4; stroke: #1f77b4"/>
     <use xlink:href="#m4a5f19d8ae" x="265.603016" y="286.407864" style="fill: #1f77b4; stroke: #1f77b4"/>
     <use xlink:href="#m4a5f19d8ae" x="271.351599" y="283.016736" style="fill: #1f77b4; stroke: #1f77b4"/>
     <use xlink:href="#m4a5f19d8ae" x="277.100182" y="272.925359" style="fill: #1f77b4; stroke: #1f77b4"/>
     <use xlink:href="#m4a5f19d8ae" x="282.848765" y="278.513298" style="fill: #1f77b4; stroke: #1f77b4"/>
     <use xlink:href="#m4a5f19d8ae" x="288.597348" y="277.148611" style="fill: #1f77b4; stroke: #1f77b4"/>
     <use xlink:href="#m4a5f19d8ae" x="294.345931" y="266.699634" style="fill: #1f77b4; stroke: #1f77b4"/>
     <use xlink:href="#m4a5f19d8ae" x="300.094514" y="269.979722" style="fill: #1f77b4; stroke: #1f77b4"/>
     <use xlink:href="#m4a5f19d8ae" x="305.843097" y="264.570333" style="fill: #1f77b4; stroke: #1f77b4"/>
     <use xlink:href="#m4a5f19d8ae" x="311.59168" y="235.188699" style="fill: #1f77b4; stroke: #1f77b4"/>
     <use xlink:href="#m4a5f19d8ae" x="317.340263" y="225.308553" style="fill: #1f77b4; stroke: #1f77b4"/>
     <use xlink:href="#m4a5f19d8ae" x="323.088846" y="206.19712" style="fill: #1f77b4; stroke: #1f77b4"/>
     <use xlink:href="#m4a5f19d8ae" x="328.837429" y="187.538238" style="fill: #1f77b4; stroke: #1f77b4"/>
     <use xlink:href="#m4a5f19d8ae" x="334.586012" y="90.536962" style="fill: #1f77b4; stroke: #1f77b4"/>
     <use xlink:href="#m4a5f19d8ae" x="340.334595" y="133.578298" style="fill: #1f77b4; stroke: #1f77b4"/>
     <use xlink:href="#m4a5f19d8ae" x="346.083178" y="122.616492" style="fill: #1f77b4; stroke: #1f77b4"/>
     <use xlink:href="#m4a5f19d8ae" x="351.831761" y="166.919239" style="fill: #1f77b4; stroke: #1f77b4"/>
     <use xlink:href="#m4a5f19d8ae" x="357.580344" y="189.622264" style="fill: #1f77b4; stroke: #1f77b4"/>
     <use xlink:href="#m4a5f19d8ae" x="363.328927" y="196.052106" style="fill: #1f77b4; stroke: #1f77b4"/>
     <use xlink:href="#m4a5f19d8ae" x="369.07751" y="215.693796" style="fill: #1f77b4; stroke: #1f77b4"/>
     <use xlink:href="#m4a5f19d8ae" x="374.826093" y="219.800636" style="fill: #1f77b4; stroke: #1f77b4"/>
     <use xlink:href="#m4a5f19d8ae" x="380.574676" y="230.324216" style="fill: #1f77b4; stroke: #1f77b4"/>
     <use xlink:href="#m4a5f19d8ae" x="386.323259" y="248.653589" style="fill: #1f77b4; stroke: #1f77b4"/>
     <use xlink:href="#m4a5f19d8ae" x="392.071842" y="240.545444" style="fill: #1f77b4; stroke: #1f77b4"/>
     <use xlink:href="#m4a5f19d8ae" x="397.820425" y="241.287453" style="fill: #1f77b4; stroke: #1f77b4"/>
     <use xlink:href="#m4a5f19d8ae" x="403.569008" y="220.290416" style="fill: #1f77b4; stroke: #1f77b4"/>
     <use xlink:href="#m4a5f19d8ae" x="409.317591" y="239.75798" style="fill: #1f77b4; stroke: #1f77b4"/>
     <use xlink:href="#m4a5f19d8ae" x="415.066174" y="247.364521" style="fill: #1f77b4; stroke: #1f77b4"/>
     <use xlink:href="#m4a5f19d8ae" x="420.814757" y="236.564964" style="fill: #1f77b4; stroke: #1f77b4"/>
     <use xlink:href="#m4a5f19d8ae" x="426.56334" y="243.191555" style="fill: #1f77b4; stroke: #1f77b4"/>
     <use xlink:href="#m4a5f19d8ae" x="432.311923" y="229.868555" style="fill: #1f77b4; stroke: #1f77b4"/>
     <use xlink:href="#m4a5f19d8ae" x="438.060506" y="249.798481" style="fill: #1f77b4; stroke: #1f77b4"/>
     <use xlink:href="#m4a5f19d8ae" x="443.809089" y="242.641131" style="fill: #1f77b4; stroke: #1f77b4"/>
     <use xlink:href="#m4a5f19d8ae" x="449.557672" y="241.948039" style="fill: #1f77b4; stroke: #1f77b4"/>
     <use xlink:href="#m4a5f19d8ae" x="455.306255" y="235.183933" style="fill: #1f77b4; stroke: #1f77b4"/>
     <use xlink:href="#m4a5f19d8ae" x="461.054838" y="240.542573" style="fill: #1f77b4; stroke: #1f77b4"/>
     <use xlink:href="#m4a5f19d8ae" x="466.803421" y="244.656476" style="fill: #1f77b4; stroke: #1f77b4"/>
     <use xlink:href="#m4a5f19d8ae" x="472.552004" y="243.878018" style="fill: #1f77b4; stroke: #1f77b4"/>
     <use xlink:href="#m4a5f19d8ae" x="478.300587" y="246.393924" style="fill: #1f77b4; stroke: #1f77b4"/>
     <use xlink:href="#m4a5f19d8ae" x="484.04917" y="255.509951" style="fill: #1f77b4; stroke: #1f77b4"/>
     <use xlink:href="#m4a5f19d8ae" x="489.797753" y="253.223965" style="fill: #1f77b4; stroke: #1f77b4"/>
     <use xlink:href="#m4a5f19d8ae" x="495.546336" y="242.327378" style="fill: #1f77b4; stroke: #1f77b4"/>
     <use xlink:href="#m4a5f19d8ae" x="501.294919" y="244.672212" style="fill: #1f77b4; stroke: #1f77b4"/>
     <use xlink:href="#m4a5f19d8ae" x="507.043502" y="233.107456" style="fill: #1f77b4; stroke: #1f77b4"/>
     <use xlink:href="#m4a5f19d8ae" x="512.792085" y="234.076748" style="fill: #1f77b4; stroke: #1f77b4"/>
     <use xlink:href="#m4a5f19d8ae" x="518.540668" y="242.920949" style="fill: #1f77b4; stroke: #1f77b4"/>
     <use xlink:href="#m4a5f19d8ae" x="524.289251" y="235.833098" style="fill: #1f77b4; stroke: #1f77b4"/>
     <use xlink:href="#m4a5f19d8ae" x="530.037834" y="240.514147" style="fill: #1f77b4; stroke: #1f77b4"/>
     <use xlink:href="#m4a5f19d8ae" x="535.786417" y="244.066813" style="fill: #1f77b4; stroke: #1f77b4"/>
     <use xlink:href="#m4a5f19d8ae" x="541.535" y="233.417583" style="fill: #1f77b4; stroke: #1f77b4"/>
    </g>
   </g>
   <g id="patch_3">
    <path d="M 44.57 318.04 
L 44.57 41.856 
" style="fill: none; stroke: #000000; stroke-width: 0.8; stroke-linejoin: miter; stroke-linecap: square"/>
   </g>
   <g id="patch_4">
    <path d="M 565.2 318.04 
L 565.2 41.856 
" style="fill: none; stroke: #000000; stroke-width: 0.8; stroke-linejoin: miter; stroke-linecap: square"/>
   </g>
   <g id="patch_5">
    <path d="M 44.57 318.04 
L 565.2 318.04 
" style="fill: none; stroke: #000000; stroke-width: 0.8; stroke-linejoin: miter; stroke-linecap: square"/>
   </g>
   <g id="patch_6">
    <path d="M 44.57 41.856 
L 565.2 41.856 
" style="fill: none; stroke: #000000; stroke-width: 0.8; stroke-linejoin: miter; stroke-linecap: square"/>
   </g>
   <g id="text_16">
    <!-- Double-slit interference (coincidences, 20 ns window) -->
    <g transform="translate(143.770937 22.418625) scale(0.12 -0.12)">
     <defs>
      <path id="DejaVuSans-44" d="M 1259 4147 
L 1259 519 
L 2022 519 
Q 2988 519 3436 956 
Q 3884 1394 3884 2338 
Q 3884 3275 3436 3711 
Q 2988 4147 2022 4147 
L 1259 4147 
z
M 628 4666 
L 1925 4666 
Q 3281 4666 3915 4102 
Q 4550 3538 4550 2338 
Q 4550 1131 3912 565 
Q 3275 0 1925 0 
L 628 0 
L 628 4666 
z
" transform="scale(0.015625)"/>
      <path id="DejaVuSans-75" d="M 544 1381 
L 544 3500 
L 1119 3500 
L 1119 1403 
Q 1119 906 1312 657 
Q 1506 409 1894 409 
Q 2359 409 2629 706 
Q 2900 1003 2900 1516 
L 2900 3500 
L 3475 3500 
L 3475 0 
L 2900 0 
L 2900 538 
Q 2691 219 2414 64 
Q 2138 -91 1772 -91 
Q 1169 -91 856 284 
Q 544 659 544 1381 
z
M 1991 3584 
L 1991 3584 
z
" transform="scale(0.015625)"/>
      <path id="DejaVuSans-62" d="M 3116 1747 
Q 3116 2381 2855 2742 
Q 2594 3103 2138 3103 
Q 1681 3103 1420 2742 
Q 1159 2381 1159 1747 
Q 1159 1113 1420 752 
Q 1681 391 2138 391 
Q 2594 391 2855 752 
Q 3116 1113 3116 1747 
z
M 1159 2969 
Q 1341 3281 1617 3432 
Q 1894 3584 2278 3584 
Q 2916 3584 3314 3078 
Q 3713 2572 3713 1747 
Q 3713 922 3314 415 
Q 2916 -91 2278 -91 
Q 1894 -91 1617 61 
Q 1341 213 1159 525 
L 1159 0 
L 581 0 
L 581 4863 
L 1159 4863 
L 1159 2969 
z
" transform="scale(0.015625)"/>
      <path id="DejaVuSans-2d" d="M 313 2009 
L 1997 2009 
L 1997 1497 
L 313 1497 
L 313 2009 
z
" transform="scale(0.015625)"/>
      <path id="DejaVuSans-66" d="M 2375 4863 
L 2375 4384 
L 1825 4384 
Q 1516 4384 1395 4259 
Q 1275 4134 1275 3809 
L 1275 3500 
L 2222 3500 
L 2222 3053 
L 1275 3053 
L 1275 0 
L 697 0 
L 697 3053 
L 147 3053 
L 147 3500 
L 697 3500 
L 697 3744 
Q 697 4328 969 4595 
Q 1241 4863 1831 4863 
L 2375 4863 
z
" transform="scale(0.015625)"/>
      <path id="DejaVuSans-2c" d="M 750 794 
L 1409 794 
L 1409 256 
L 897 -744 
L 494 -744 
L 750 256 
L 750 794 
z
" transform="scale(0.015625)"/>
      <path id="DejaVuSans-77" d="M 269 3500 
L 844 3500 
L 1563 769 
L 2278 3500 
L 2956 3500 
L 3675 769 
L 4391 3500 
L 4966 3500 
L 4050 0 
L 3372 0 
L 2619 2869 
L 1863 0 
L 1184 0 
L 269 3500 
z
" transform="scale(0.015625)"/>
     </defs>
     <use xlink:href="#DejaVuSans-44"/>
     <use xlink:href="#DejaVuSans-6f" transform="translate(77.001953 0)"/>
     <use xlink:href="#DejaVuSans-75" transform="translate(138.183594 0)"/>
     <use xlink:href="#DejaVuSans-62" transform="translate(201.5625 0)"/>
     <use xlink:href="#DejaVuSans-6c" transform="translate(265.039062 0)"/>
     <use xlink:href="#DejaVuSans-65" transform="translate(292.822266 0)"/>
     <use xlink:href="#DejaVuSans-2d" transform="translate(354.345703 0)"/>
     <use xlink:href="#DejaVuSans-73" transform="translate(390.429688 0)"/>
     <use xlink:href="#DejaVuSans-6c" transform="translate(442.529297 0)"/>
     <use xlink:href="#DejaVuSans-69" transform="translate(470.3125 0)"/>
     <use xlink:href="#DejaVuSans-74" transform="translate(498.095703 0)"/>
     <use xlink:href="#DejaVuSans-20" transform="translate(537.304688 0)"/>
     <use xlink:href="#DejaVuSans-69" transform="translate(569.091797 0)"/>
     <use xlink:href="#DejaVuSans-6e" transform="translate(596.875 0)"/>
     <use xlink:href="#DejaVuSans-74" transform="translate(660.253906 0)"/>
     <use xlink:href="#DejaVuSans-65" transform="translate(699.462891 0)"/>
     <use xlink:href="#DejaVuSans-72" transform="translate(760.986328 0)"/>
     <use xlink:href="#DejaVuSans-66" transform="translate(802.099609 0)"/>
     <use xlink:href="#DejaVuSans-65" transform="translate(837.304688 0)"/>
     <use xlink:href="#DejaVuSans-72" transform="translate(898.828125 0)"/>
     <use xlink:href="#DejaVuSans-65" transform="translate(937.691406 0)"/>
     <use xlink:href="#DejaVuSans-6e" transform="translate(999.214844 0)"/>
     <use xlink:href="#DejaVuSans-63" transform="translate(1062.59375 0)"/>
     <use xlink:href="#DejaVuSans-65" transform="translate(1117.574219 0)"/>
     <use xlink:href="#DejaVuSans-20" transform="translate(1179.097656 0)"/>
     <use xlink:href="#DejaVuSans-28" transform="translate(1210.884766 0)"/>
     <use xlink:href="#DejaVuSans-63" transform="translate(1249.898438 0)"/>
     <use xlink:href="#DejaVuSans-6f" transform="translate(1304.878906 0)"/>
     <use xlink:href="#DejaVuSans-69" transform="translate(1366.060547 0)"/>
     <use xlink:href="#DejaVuSans-6e" transform="translate(1393.84375 0)"/>
     <use xlink:href="#DejaVuSans-63" transform="translate(1457.222656 0)"/>
     <use xlink:href="#DejaVuSans-69" transform="translate(1512.203125 0)"/>
     <use xlink:href="#DejaVuSans-64" transform="translate(1539.986328 0)"/>
     <use xlink:href="#DejaVuSans-65" transform="translate(1603.462891 0)"/>
     <use xlink:href="#DejaVuSans-6e" transform="translate(1664.986328 0)"/>
     <use xlink:href="#DejaVuSans-63" transform="translate(1728.365234 0)"/>
     <use xlink:href="#DejaVuSans-65" transform="translate(1783.345703 0)"/>
     <use xlink:href="#DejaVuSans-73" transform="translate(1844.869141 0)"/>
     <use xlink:href="#DejaVuSans-2c" transform="translate(1896.96875 0)"/>
     <use xlink:href="#DejaVuSans-20" transform="translate(1928.755859 0)"/>
     <use xlink:href="#DejaVuSans-32" transform="translate(1960.542969 0)"/>
     <use xlink:href="#DejaVuSans-30" transform="translate(2024.166016 0)"/>
     <use xlink:href="#DejaVuSans-20" transform="translate(2087.789062 0)"/>
     <use xlink:href="#DejaVuSans-6e" transform="translate(2119.576172 0)"/>
     <use xlink:href="#DejaVuSans-73" transform="translate(2182.955078 0)"/>
     <use xlink:href="#DejaVuSans-20" transform="translate(2235.054688 0)"/>
     <use xlink:href="#DejaVuSans-77" transform="translate(2266.841797 0)"/>
     <use xlink:href="#DejaVuSans-69" transform="translate(2348.628906 0)"/>
     <use xlink:href="#DejaVuSans-6e" transform="translate(2376.412109 0)"/>
     <use xlink:href="#DejaVuSans-64" transform="translate(2439.791016 0)"/>
     <use xlink:href="#DejaVuSans-6f" transform="translate(2503.267578 0)"/>
     <use xlink:href="#DejaVuSans-77" transform="translate(2564.449219 0)"/>
     <use xlink:href="#DejaVuSans-29" transform="translate(2646.236328 0)"/>
    </g>
    <!-- Estimated center x0 = 13.90 mm -->
    <g transform="translate(204.474062 35.856) scale(0.12 -0.12)">
     <defs>
      <path id="DejaVuSans-45" d="M 628 4666 
L 3578 4666 
L 3578 4134 
L 1259 4134 
L 1259 2753 
L 3481 2753 
L 3481 2222 
L 1259 2222 
L 1259 531 
L 3634 531 
L 3634 0 
L 628 0 
L 628 4666 
z
" transform="scale(0.015625)"/>
      <path id="DejaVuSans-3d" d="M 678 2906 
L 4684 2906 
L 4684 2381 
L 678 2381 
L 678 2906 
z
M 678 1631 
L 4684 1631 
L 4684 1100 
L 678 1100 
L 678 1631 
z
" transform="scale(0.015625)"/>
      <path id="DejaVuSans-2e" d="M 684 794 
L 1344 794 
L 1344 0 
L 684 0 
L 684 794 
z
" transform="scale(0.015625)"/>
      <path id="DejaVuSans-39" d="M 703 97 
L 703 672 
Q 941 559 1184 500 
Q 1428 441 1663 441 
Q 2288 441 2617 861 
Q 2947 1281 2994 2138 
Q 2813 1869 2534 1725 
Q 2256 1581 1919 1581 
Q 1219 1581 811 2004 
Q 403 2428 403 3163 
Q 403 3881 828 4315 
Q 1253 4750 1959 4750 
Q 2769 4750 3195 4129 
Q 3622 3509 3622 2328 
Q 3622 1225 3098 567 
Q 2575 -91 1691 -91 
Q 1453 -91 1209 -44 
Q 966 3 703 97 
z
M 1959 2075 
Q 2384 2075 2632 2365 
Q 2881 2656 2881 3163 
Q 2881 3666 2632 3958 
Q 2384 4250 1959 4250 
Q 1534 4250 1286 3958 
Q 1038 3666 1038 3163 
Q 1038 2656 1286 2365 
Q 1534 2075 1959 2075 
z
" transform="scale(0.015625)"/>
     </defs>
     <use xlink:href="#DejaVuSans-45"/>
     <use xlink:href="#DejaVuSans-73" transform="translate(63.183594 0)"/>
     <use xlink:href="#DejaVuSans-74" transform="translate(115.283203 0)"/>
     <use xlink:href="#DejaVuSans-69" transform="translate(154.492188 0)"/>
     <use xlink:href="#DejaVuSans-6d" transform="translate(182.275391 0)"/>
     <use xlink:href="#DejaVuSans-61" transform="translate(279.6875 0)"/>
     <use xlink:href="#DejaVuSans-74" transform="translate(340.966797 0)"/>
     <use xlink:href="#DejaVuSans-65" transform="translate(380.175781 0)"/>
     <use xlink:href="#DejaVuSans-64" transform="translate(441.699219 0)"/>
     <use xlink:href="#DejaVuSans-20" transform="translate(505.175781 0)"/>
     <use xlink:href="#DejaVuSans-63" transform="translate(536.962891 0)"/>
     <use xlink:href="#DejaVuSans-65" transform="translate(591.943359 0)"/>
     <use xlink:href="#DejaVuSans-6e" transform="translate(653.466797 0)"/>
     <use xlink:href="#DejaVuSans-74" transform="translate(716.845703 0)"/>
     <use xlink:href="#DejaVuSans-65" transform="translate(756.054688 0)"/>
     <use xlink:href="#DejaVuSans-72" transform="translate(817.578125 0)"/>
     <use xlink:href="#DejaVuSans-20" transform="translate(858.691406 0)"/>
     <use xlink:href="#DejaVuSans-78" transform="translate(890.478516 0)"/>
     <use xlink:href="#DejaVuSans-30" transform="translate(949.658203 0)"/>
     <use xlink:href="#DejaVuSans-20" transform="translate(1013.28125 0)"/>
     <use xlink:href="#DejaVuSans-3d" transform="translate(1045.068359 0)"/>
     <use xlink:href="#DejaVuSans-20" transform="translate(1128.857422 0)"/>
     <use xlink:href="#DejaVuSans-31" transform="translate(1160.644531 0)"/>
     <use xlink:href="#DejaVuSans-33" transform="translate(1224.267578 0)"/>
     <use xlink:href="#DejaVuSans-2e" transform="translate(1287.890625 0)"/>
     <use xlink:href="#DejaVuSans-39" transform="translate(1319.677734 0)"/>
     <use xlink:href="#DejaVuSans-30" transform="translate(1383.300781 0)"/>
     <use xlink:href="#DejaVuSans-20" transform="translate(1446.923828 0)"/>
     <use xlink:href="#DejaVuSans-6d" transform="translate(1478.710938 0)"/>
     <use xlink:href="#DejaVuSans-6d" transform="translate(1576.123047 0)"/>
    </g>
   </g>
   <g id="legend_1">
    <g id="patch_7">
     <path d="M 205.9 91.431938 
L 558.2 91.431938 
Q 560.2 91.431938 560.2 89.431938 
L 560.2 48.856 
Q 560.2 46.856 558.2 46.856 
L 205.9 46.856 
Q 203.9 46.856 203.9 48.856 
L 203.9 89.431938 
Q 203.9 91.431938 205.9 91.431938 
z
" style="fill: #ffffff; opacity: 0.8; stroke: #cccccc; stroke-linejoin: miter"/>
    </g>
    <g id="line2d_31">
     <path d="M 207.9 54.956 
L 217.9 54.956 
L 227.9 54.956 
" style="fill: none; stroke: #ff7f0e; stroke-width: 1.5; stroke-linecap: square"/>
    </g>
    <g id="text_17">
     <!-- Fit (extended Eq. 9): V = 0.77, $\delta$ = 0.18 rad, $s$ = 1.11, $N_{bg}$ = 9.6 -->
     <g transform="translate(235.9 58.456) scale(0.1 -0.1)">
      <defs>
       <path id="DejaVuSans-46" d="M 628 4666 
L 3309 4666 
L 3309 4134 
L 1259 4134 
L 1259 2759 
L 3109 2759 
L 3109 2228 
L 1259 2228 
L 1259 0 
L 628 0 
L 628 4666 
z
" transform="scale(0.015625)"/>
       <path id="DejaVuSans-71" d="M 947 1747 
Q 947 1113 1208 752 
Q 1469 391 1925 391 
Q 2381 391 2643 752 
Q 2906 1113 2906 1747 
Q 2906 2381 2643 2742 
Q 2381 3103 1925 3103 
Q 1469 3103 1208 2742 
Q 947 2381 947 1747 
z
M 2906 525 
Q 2725 213 2448 61 
Q 2172 -91 1784 -91 
Q 1150 -91 751 415 
Q 353 922 353 1747 
Q 353 2572 751 3078 
Q 1150 3584 1784 3584 
Q 2172 3584 2448 3432 
Q 2725 3281 2906 2969 
L 2906 3500 
L 3481 3500 
L 3481 -1331 
L 2906 -1331 
L 2906 525 
z
" transform="scale(0.015625)"/>
       <path id="DejaVuSans-3a" d="M 750 794 
L 1409 794 
L 1409 0 
L 750 0 
L 750 794 
z
M 750 3309 
L 1409 3309 
L 1409 2516 
L 750 2516 
L 750 3309 
z
" transform="scale(0.015625)"/>
       <path id="DejaVuSans-56" d="M 1831 0 
L 50 4666 
L 709 4666 
L 2188 738 
L 3669 4666 
L 4325 4666 
L 2547 0 
L 1831 0 
z
" transform="scale(0.015625)"/>
       <path id="DejaVuSans-37" d="M 525 4666 
L 3525 4666 
L 3525 4397 
L 1831 0 
L 1172 0 
L 2766 4134 
L 525 4134 
L 525 4666 
z
" transform="scale(0.015625)"/>
       <path id="DejaVuSans-Oblique-3b4" d="M 3472 4053 
Q 3197 4272 2450 4272 
Q 1659 4272 1588 3906 
Q 1531 3619 2328 3469 
Q 2953 3353 3253 3003 
Q 3616 2581 3447 1716 
Q 3284 888 2763 400 
Q 2238 -91 1488 -91 
Q 741 -91 406 400 
Q 72 888 241 1747 
Q 363 2384 891 2900 
Q 1097 3100 1353 3213 
Q 913 3459 1000 3900 
Q 1166 4750 2544 4750 
Q 3234 4750 3566 4531 
L 3472 4053 
z
M 1753 3056 
Q 1525 2966 1306 2738 
Q 969 2384 847 1747 
Q 722 1113 919 756 
Q 1119 397 1584 397 
Q 2044 397 2381 759 
Q 2722 1122 2838 1716 
Q 2956 2338 2731 2638 
Q 2491 2959 2103 2994 
Q 1906 3013 1753 3056 
z
" transform="scale(0.015625)"/>
       <path id="DejaVuSans-38" d="M 2034 2216 
Q 1584 2216 1326 1975 
Q 1069 1734 1069 1313 
Q 1069 891 1326 650 
Q 1584 409 2034 409 
Q 2484 409 2743 651 
Q 3003 894 3003 1313 
Q 3003 1734 2745 1975 
Q 2488 2216 2034 2216 
z
M 1403 2484 
Q 997 2584 770 2862 
Q 544 3141 544 3541 
Q 544 4100 942 4425 
Q 1341 4750 2034 4750 
Q 2731 4750 3128 4425 
Q 3525 4100 3525 3541 
Q 3525 3141 3298 2862 
Q 3072 2584 2669 2484 
Q 3125 2378 3379 2068 
Q 3634 1759 3634 1313 
Q 3634 634 3220 271 
Q 2806 -91 2034 -91 
Q 1263 -91 848 271 
Q 434 634 434 1313 
Q 434 1759 690 2068 
Q 947 2378 1403 2484 
z
M 1172 3481 
Q 1172 3119 1398 2916 
Q 1625 2713 2034 2713 
Q 2441 2713 2670 2916 
Q 2900 3119 2900 3481 
Q 2900 3844 2670 4047 
Q 2441 4250 2034 4250 
Q 1625 4250 1398 4047 
Q 1172 3844 1172 3481 
z
" transform="scale(0.015625)"/>
       <path id="DejaVuSans-Oblique-73" d="M 3200 3397 
L 3091 2853 
Q 2863 2978 2609 3040 
Q 2356 3103 2088 3103 
Q 1634 3103 1373 2948 
Q 1113 2794 1113 2528 
Q 1113 2219 1719 2053 
Q 1766 2041 1788 2034 
L 1972 1978 
Q 2547 1819 2739 1644 
Q 2931 1469 2931 1166 
Q 2931 609 2489 259 
Q 2047 -91 1331 -91 
Q 1053 -91 747 -37 
Q 441 16 72 128 
L 184 722 
Q 500 559 806 475 
Q 1113 391 1394 391 
Q 1816 391 2080 572 
Q 2344 753 2344 1031 
Q 2344 1331 1650 1516 
L 1591 1531 
L 1394 1581 
Q 956 1697 753 1886 
Q 550 2075 550 2369 
Q 550 2928 970 3256 
Q 1391 3584 2113 3584 
Q 2397 3584 2667 3537 
Q 2938 3491 3200 3397 
z
" transform="scale(0.015625)"/>
       <path id="DejaVuSans-Oblique-4e" d="M 1081 4666 
L 1931 4666 
L 3219 666 
L 4000 4666 
L 4616 4666 
L 3706 0 
L 2853 0 
L 1569 4025 
L 788 0 
L 172 0 
L 1081 4666 
z
" transform="scale(0.015625)"/>
       <path id="DejaVuSans-Oblique-62" d="M 3169 2138 
Q 3169 2591 2961 2847 
Q 2753 3103 2388 3103 
Q 2122 3103 1889 2973 
Q 1656 2844 1484 2597 
Q 1303 2338 1198 1995 
Q 1094 1653 1094 1313 
Q 1094 881 1298 636 
Q 1503 391 1863 391 
Q 2134 391 2365 517 
Q 2597 644 2772 891 
Q 2950 1147 3059 1487 
Q 3169 1828 3169 2138 
z
M 1381 2969 
Q 1594 3256 1914 3420 
Q 2234 3584 2584 3584 
Q 3122 3584 3439 3221 
Q 3756 2859 3756 2241 
Q 3756 1734 3570 1259 
Q 3384 784 3041 416 
Q 2816 172 2522 40 
Q 2228 -91 1906 -91 
Q 1566 -91 1316 65 
Q 1066 222 909 531 
L 806 0 
L 231 0 
L 1178 4863 
L 1753 4863 
L 1381 2969 
z
" transform="scale(0.015625)"/>
       <path id="DejaVuSans-Oblique-67" d="M 3816 3500 
L 3219 434 
Q 3047 -456 2561 -893 
Q 2075 -1331 1253 -1331 
Q 950 -1331 690 -1286 
Q 431 -1241 206 -1147 
L 313 -588 
Q 525 -725 762 -790 
Q 1000 -856 1269 -856 
Q 1816 -856 2167 -557 
Q 2519 -259 2631 300 
L 2681 563 
Q 2441 288 2122 144 
Q 1803 0 1434 0 
Q 903 0 598 351 
Q 294 703 294 1319 
Q 294 1803 478 2267 
Q 663 2731 997 3091 
Q 1219 3328 1514 3456 
Q 1809 3584 2131 3584 
Q 2484 3584 2746 3420 
Q 3009 3256 3138 2956 
L 3238 3500 
L 3816 3500 
z
M 2950 2216 
Q 2950 2641 2750 2872 
Q 2550 3103 2181 3103 
Q 1953 3103 1747 3012 
Q 1541 2922 1394 2759 
Q 1156 2491 1023 2127 
Q 891 1763 891 1375 
Q 891 944 1092 712 
Q 1294 481 1672 481 
Q 2219 481 2584 976 
Q 2950 1472 2950 2216 
z
" transform="scale(0.015625)"/>
       <path id="DejaVuSans-36" d="M 2113 2584 
Q 1688 2584 1439 2293 
Q 1191 2003 1191 1497 
Q 1191 994 1439 701 
Q 1688 409 2113 409 
Q 2538 409 2786 701 
Q 3034 994 3034 1497 
Q 3034 2003 2786 2293 
Q 2538 2584 2113 2584 
z
M 3366 4563 
L 3366 3988 
Q 3128 4100 2886 4159 
Q 2644 4219 2406 4219 
Q 1781 4219 1451 3797 
Q 1122 3375 1075 2522 
Q 1259 2794 1537 2939 
Q 1816 3084 2150 3084 
Q 2853 3084 3261 2657 
Q 3669 2231 3669 1497 
Q 3669 778 3244 343 
Q 2819 -91 2113 -91 
Q 1303 -91 875 529 
Q 447 1150 447 2328 
Q 447 3434 972 4092 
Q 1497 4750 2381 4750 
Q 2619 4750 2861 4703 
Q 3103 4656 3366 4563 
z
" transform="scale(0.015625)"/>
      </defs>
      <use xlink:href="#DejaVuSans-46" transform="translate(0 0.015625)"/>
      <use xlink:href="#DejaVuSans-69" transform="translate(57.519531 0.015625)"/>
      <use xlink:href="#DejaVuSans-74" transform="translate(85.302734 0.015625)"/>
      <use xlink:href="#DejaVuSans-20" transform="translate(124.511719 0.015625)"/>
      <use xlink:href="#DejaVuSans-28" transform="translate(156.298828 0.015625)"/>
      <use xlink:href="#DejaVuSans-65" transform="translate(195.3125 0.015625)"/>
      <use xlink:href="#DejaVuSans-78" transform="translate(256.835938 0.015625)"/>
      <use xlink:href="#DejaVuSans-74" transform="translate(316.015625 0.015625)"/>
      <use xlink:href="#DejaVuSans-65" transform="translate(355.224609 0.015625)"/>
      <use xlink:href="#DejaVuSans-6e" transform="translate(416.748047 0.015625)"/>
      <use xlink:href="#DejaVuSans-64" transform="translate(480.126953 0.015625)"/>
      <use xlink:href="#DejaVuSans-65" transform="translate(543.603516 0.015625)"/>
      <use xlink:href="#DejaVuSans-64" transform="translate(605.126953 0.015625)"/>
      <use xlink:href="#DejaVuSans-20" transform="translate(668.603516 0.015625)"/>
      <use xlink:href="#DejaVuSans-45" transform="translate(700.390625 0.015625)"/>
      <use xlink:href="#DejaVuSans-71" transform="translate(763.574219 0.015625)"/>
      <use xlink:href="#DejaVuSans-2e" transform="translate(827.050781 0.015625)"/>
      <use xlink:href="#DejaVuSans-20" transform="translate(858.837891 0.015625)"/>
      <use xlink:href="#DejaVuSans-39" transform="translate(890.625 0.015625)"/>
      <use xlink:href="#DejaVuSans-29" transform="translate(954.248047 0.015625)"/>
      <use xlink:href="#DejaVuSans-3a" transform="translate(993.261719 0.015625)"/>
      <use xlink:href="#DejaVuSans-20" transform="translate(1026.953125 0.015625)"/>
      <use xlink:href="#DejaVuSans-56" transform="translate(1058.740234 0.015625)"/>
      <use xlink:href="#DejaVuSans-20" transform="translate(1127.148438 0.015625)"/>
      <use xlink:href="#DejaVuSans-3d" transform="translate(1158.935547 0.015625)"/>
      <use xlink:href="#DejaVuSans-20" transform="translate(1242.724609 0.015625)"/>
      <use xlink:href="#DejaVuSans-30" transform="translate(1274.511719 0.015625)"/>
      <use xlink:href="#DejaVuSans-2e" transform="translate(1338.134766 0.015625)"/>
      <use xlink:href="#DejaVuSans-37" transform="translate(1362.171875 0.015625)"/>
      <use xlink:href="#DejaVuSans-37" transform="translate(1424.044922 0.015625)"/>
      <use xlink:href="#DejaVuSans-2c" transform="translate(1487.667969 0.015625)"/>
      <use xlink:href="#DejaVuSans-20" transform="translate(1519.455078 0.015625)"/>
      <use xlink:href="#DejaVuSans-Oblique-3b4" transform="translate(1551.242188 0.015625)"/>
      <use xlink:href="#DejaVuSans-20" transform="translate(1612.423828 0.015625)"/>
      <use xlink:href="#DejaVuSans-3d" transform="translate(1644.210938 0.015625)"/>
      <use xlink:href="#DejaVuSans-20" transform="translate(1728 0.015625)"/>
      <use xlink:href="#DejaVuSans-30" transform="translate(1759.787109 0.015625)"/>
      <use xlink:href="#DejaVuSans-2e" transform="translate(1823.410156 0.015625)"/>
      <use xlink:href="#DejaVuSans-31" transform="translate(1855.197266 0.015625)"/>
      <use xlink:href="#DejaVuSans-38" transform="translate(1918.820312 0.015625)"/>
      <use xlink:href="#DejaVuSans-20" transform="translate(1982.443359 0.015625)"/>
      <use xlink:href="#DejaVuSans-72" transform="translate(2014.230469 0.015625)"/>
      <use xlink:href="#DejaVuSans-61" transform="translate(2055.34375 0.015625)"/>
      <use xlink:href="#DejaVuSans-64" transform="translate(2116.623047 0.015625)"/>
      <use xlink:href="#DejaVuSans-2c" transform="translate(2180.099609 0.015625)"/>
      <use xlink:href="#DejaVuSans-20" transform="translate(2211.886719 0.015625)"/>
      <use xlink:href="#DejaVuSans-Oblique-73" transform="translate(2243.673828 0.015625)"/>
      <use xlink:href="#DejaVuSans-20" transform="translate(2295.773438 0.015625)"/>
      <use xlink:href="#DejaVuSans-3d" transform="translate(2327.560547 0.015625)"/>
      <use xlink:href="#DejaVuSans-20" transform="translate(2411.349609 0.015625)"/>
      <use xlink:href="#DejaVuSans-31" transform="translate(2443.136719 0.015625)"/>
      <use xlink:href="#DejaVuSans-2e" transform="translate(2506.759766 0.015625)"/>
      <use xlink:href="#DejaVuSans-31" transform="translate(2538.546875 0.015625)"/>
      <use xlink:href="#DejaVuSans-31" transform="translate(2602.169922 0.015625)"/>
      <use xlink:href="#DejaVuSans-2c" transform="translate(2665.792969 0.015625)"/>
      <use xlink:href="#DejaVuSans-20" transform="translate(2697.580078 0.015625)"/>
      <use xlink:href="#DejaVuSans-Oblique-4e" transform="translate(2729.367188 0.015625)"/>
      <use xlink:href="#DejaVuSans-Oblique-62" transform="translate(2804.171875 -16.390625) scale(0.7)"/>
      <use xlink:href="#DejaVuSans-Oblique-67" transform="translate(2848.605469 -16.390625) scale(0.7)"/>
      <use xlink:href="#DejaVuSans-20" transform="translate(2895.773438 0.015625)"/>
      <use xlink:href="#DejaVuSans-3d" transform="translate(2927.560547 0.015625)"/>
      <use xlink:href="#DejaVuSans-20" transform="translate(3011.349609 0.015625)"/>
      <use xlink:href="#DejaVuSans-39" transform="translate(3043.136719 0.015625)"/>
      <use xlink:href="#DejaVuSans-2e" transform="translate(3106.759766 0.015625)"/>
      <use xlink:href="#DejaVuSans-36" transform="translate(3138.546875 0.015625)"/>
     </g>
    </g>
    <g id="LineCollection_2">
     <path d="M 217.9 82.293188 
L 217.9 72.293188 
" style="fill: none; stroke: #1f77b4; stroke-width: 1.5"/>
    </g>
    <g id="line2d_32">
     <g>
      <use xlink:href="#mfe169c8014" x="217.9" y="82.293188" style="fill: #1f77b4; stroke: #1f77b4"/>
     </g>
    </g>
    <g id="line2d_33">
     <g>
      <use xlink:href="#mfe169c8014" x="217.9" y="72.293188" style="fill: #1f77b4; stroke: #1f77b4"/>
     </g>
    </g>
    <g id="line2d_34"/>
    <g id="line2d_35">
     <g>
      <use xlink:href="#m4a5f19d8ae" x="217.9" y="77.293188" style="fill: #1f77b4; stroke: #1f77b4"/>
     </g>
    </g>
    <g id="text_18">
     <!-- Data: mean coincidences per interval -->
     <g transform="translate(235.9 74.154438) scale(0.1 -0.1)">
      <use xlink:href="#DejaVuSans-44"/>
      <use xlink:href="#DejaVuSans-61" transform="translate(77.001953 0)"/>
      <use xlink:href="#DejaVuSans-74" transform="translate(138.28125 0)"/>
      <use xlink:href="#DejaVuSans-61" transform="translate(177.490234 0)"/>
      <use xlink:href="#DejaVuSans-3a" transform="translate(238.769531 0)"/>
      <use xlink:href="#DejaVuSans-20" transform="translate(272.460938 0)"/>
      <use xlink:href="#DejaVuSans-6d" transform="translate(304.248047 0)"/>
      <use xlink:href="#DejaVuSans-65" transform="translate(401.660156 0)"/>
      <use xlink:href="#DejaVuSans-61" transform="translate(463.183594 0)"/>
      <use xlink:href="#DejaVuSans-6e" transform="translate(524.462891 0)"/>
      <use xlink:href="#DejaVuSans-20" transform="translate(587.841797 0)"/>
      <use xlink:href="#DejaVuSans-63" transform="translate(619.628906 0)"/>
      <use xlink:href="#DejaVuSans-6f" transform="translate(674.609375 0)"/>
      <use xlink:href="#DejaVuSans-69" transform="translate(735.791016 0)"/>
      <use xlink:href="#DejaVuSans-6e" transform="translate(763.574219 0)"/>
      <use xlink:href="#DejaVuSans-63" transform="translate(826.953125 0)"/>
      <use xlink:href="#DejaVuSans-69" transform="translate(881.933594 0)"/>
      <use xlink:href="#DejaVuSans-64" transform="translate(909.716797 0)"/>
      <use xlink:href="#DejaVuSans-65" transform="translate(973.193359 0)"/>
      <use xlink:href="#DejaVuSans-6e" transform="translate(1034.716797 0)"/>
      <use xlink:href="#DejaVuSans-63" transform="translate(1098.095703 0)"/>
      <use xlink:href="#DejaVuSans-65" transform="translate(1153.076172 0)"/>
      <use xlink:href="#DejaVuSans-73" transform="translate(1214.599609 0)"/>
      <use xlink:href="#DejaVuSans-20" transform="translate(1266.699219 0)"/>
      <use xlink:href="#DejaVuSans-70" transform="translate(1298.486328 0)"/>
      <use xlink:href="#DejaVuSans-65" transform="translate(1361.962891 0)"/>
      <use xlink:href="#DejaVuSans-72" transform="translate(1423.486328 0)"/>
      <use xlink:href="#DejaVuSans-20" transform="translate(1464.599609 0)"/>
      <use xlink:href="#DejaVuSans-69" transform="translate(1496.386719 0)"/>
      <use xlink:href="#DejaVuSans-6e" transform="translate(1524.169922 0)"/>
      <use xlink:href="#DejaVuSans-74" transform="translate(1587.548828 0)"/>
      <use xlink:href="#DejaVuSans-65" transform="translate(1626.757812 0)"/>
      <use xlink:href="#DejaVuSans-72" transform="translate(1688.28125 0)"/>
      <use xlink:href="#DejaVuSans-76" transform="translate(1729.394531 0)"/>
      <use xlink:href="#DejaVuSans-61" transform="translate(1788.574219 0)"/>
      <use xlink:href="#DejaVuSans-6c" transform="translate(1849.853516 0)"/>
     </g>
     <!-- (20 ns window, dt = 0.500 s) -->
     <g transform="translate(235.9 85.35225) scale(0.1 -0.1)">
      <use xlink:href="#DejaVuSans-28"/>
      <use xlink:href="#DejaVuSans-32" transform="translate(39.013672 0)"/>
      <use xlink:href="#DejaVuSans-30" transform="translate(102.636719 0)"/>
      <use xlink:href="#DejaVuSans-20" transform="translate(166.259766 0)"/>
      <use xlink:href="#DejaVuSans-6e" transform="translate(198.046875 0)"/>
      <use xlink:href="#DejaVuSans-73" transform="translate(261.425781 0)"/>
      <use xlink:href="#DejaVuSans-20" transform="translate(313.525391 0)"/>
      <use xlink:href="#DejaVuSans-77" transform="translate(345.3125 0)"/>
      <use xlink:href="#DejaVuSans-69" transform="translate(427.099609 0)"/>
      <use xlink:href="#DejaVuSans-6e" transform="translate(454.882812 0)"/>
      <use xlink:href="#DejaVuSans-64" transform="translate(518.261719 0)"/>
      <use xlink:href="#DejaVuSans-6f" transform="translate(581.738281 0)"/>
      <use xlink:href="#DejaVuSans-77" transform="translate(642.919922 0)"/>
      <use xlink:href="#DejaVuSans-2c" transform="translate(724.707031 0)"/>
      <use xlink:href="#DejaVuSans-20" transform="translate(756.494141 0)"/>
      <use xlink:href="#DejaVuSans-64" transform="translate(788.28125 0)"/>
      <use xlink:href="#DejaVuSans-74" transform="translate(851.757812 0)"/>
      <use xlink:href="#DejaVuSans-20" transform="translate(890.966797 0)"/>
      <use xlink:href="#DejaVuSans-3d" transform="translate(922.753906 0)"/>
      <use xlink:href="#DejaVuSans-20" transform="translate(1006.542969 0)"/>
      <use xlink:href="#DejaVuSans-30" transform="translate(1038.330078 0)"/>
      <use xlink:href="#DejaVuSans-2e" transform="translate(1101.953125 0)"/>
      <use xlink:href="#DejaVuSans-35" transform="translate(1133.740234 0)"/>
      <use xlink:href="#DejaVuSans-30" transform="translate(1197.363281 0)"/>
      <use xlink:href="#DejaVuSans-30" transform="translate(1260.986328 0)"/>
      <use xlink:href="#DejaVuSans-20" transform="translate(1324.609375 0)"/>
      <use xlink:href="#DejaVuSans-73" transform="translate(1356.396484 0)"/>
      <use xlink:href="#DejaVuSans-29" transform="translate(1408.496094 0)"/>
     </g>
    </g>
   </g>
  </g>
 </g>
 <defs>
  <clipPath id="p5959cf2e88">
   <rect x="44.57" y="41.856" width="520.63" height="276.184"/>
  </clipPath>
 </defs>
</svg>
